<?xml version="1.0" standalone="no"?>
<!DOCTYPE svg PUBLIC "-//W3C//DTD SVG 20010904//EN"
 "http://www.w3.org/TR/2001/REC-SVG-20010904/DTD/svg10.dtd">
<svg version="1.0" xmlns="http://www.w3.org/2000/svg"
 width="1024.000000pt" height="1024.000000pt" viewBox="0 0 1024.000000 1024.000000"
 preserveAspectRatio="xMidYMid meet">

<g transform="translate(0.000000,1024.000000) scale(0.100000,-0.100000)"
fill="#000000" stroke="none">
<path d="M0 5120 l0 -5120 5120 0 5120 0 0 5120 0 5120 -5120 0 -5120 0 0
-5120z m4166 4093 l92 -45 34 37 c24 26 40 36 51 32 15 -6 17 -27 15 -196 -2
-126 -7 -194 -14 -201 -9 -9 -21 7 -49 62 -65 129 -153 198 -251 198 -126 0
-200 -148 -127 -255 15 -22 32 -45 37 -50 13 -13 112 -75 226 -143 102 -61
210 -167 240 -235 59 -132 33 -293 -62 -388 -79 -79 -222 -112 -351 -83 -73
17 -147 44 -147 53 0 8 -60 31 -79 31 -13 0 -21 -6 -77 -59 -21 -20 -39 -30
-45 -24 -5 5 -10 113 -12 241 -3 189 -1 232 10 232 17 0 45 -28 69 -69 10 -17
22 -31 26 -31 4 0 8 -5 8 -11 0 -22 115 -163 159 -195 75 -54 151 -64 223 -27
35 17 54 47 66 101 20 86 -21 174 -106 230 -26 17 -59 42 -74 56 -15 15 -30
26 -33 26 -7 0 -117 70 -168 107 -112 82 -167 180 -167 302 0 89 24 164 68
221 49 60 57 67 122 98 115 55 184 51 316 -15z m1066 27 c52 -16 79 -33 133
-82 57 -52 76 -78 111 -153 58 -122 84 -252 84 -410 -1 -66 -5 -138 -10 -160
-36 -162 -90 -270 -179 -362 -85 -87 -145 -113 -264 -113 -71 0 -90 4 -143 31
-78 38 -171 133 -212 217 -17 34 -29 62 -26 62 3 0 -1 10 -7 22 -45 85 -73
351 -50 483 25 140 99 286 190 373 52 50 84 68 161 93 74 23 135 23 212 -1z
m-2389 1 c22 -9 106 -106 192 -221 17 -22 40 -52 53 -67 18 -23 82 -129 123
-206 20 -36 -29 -8 -80 46 -63 67 -79 87 -192 237 -120 159 -139 188 -139 205
0 17 9 19 43 6z m3193 -5 c12 -9 24 -30 29 -52 8 -44 147 -318 218 -431 14
-22 41 -70 61 -109 36 -69 57 -105 66 -114 8 -8 28 -41 46 -77 24 -48 42 -43
38 10 -2 23 -5 171 -8 328 -3 257 -6 291 -23 330 -22 48 -50 77 -91 96 -22 9
12 12 181 12 114 1 207 -1 207 -4 0 -3 -15 -19 -34 -35 -18 -17 -44 -54 -57
-82 l-24 -53 -2 -530 -1 -530 -59 -3 c-103 -6 -118 1 -159 71 -21 34 -48 81
-61 105 -12 23 -35 63 -50 90 -14 26 -42 76 -61 112 -18 36 -37 70 -42 75 -4
6 -20 33 -35 60 -16 28 -31 52 -34 55 -3 3 -17 25 -30 50 -71 132 -82 153 -96
167 -8 8 -16 24 -16 36 -1 17 -3 14 -8 -8 -13 -55 4 -632 20 -686 9 -29 26
-51 58 -76 25 -20 38 -33 29 -30 -12 4 -18 1 -18 -8 0 -11 -18 -14 -92 -13
-51 0 -135 -1 -186 -5 -51 -3 -95 -1 -98 4 -3 5 11 29 30 52 72 88 71 77 74
531 3 337 0 421 -12 483 -17 78 -47 129 -91 153 -54 29 -30 33 189 38 90 1
125 -2 142 -12z m1594 -63 c0 -13 -34 -63 -96 -144 -297 -386 -320 -418 -307
-420 5 -1 60 -2 125 -3 64 -1 120 -4 124 -8 4 -4 -36 -52 -88 -105 -103 -107
-208 -218 -256 -273 -37 -43 -92 -77 -92 -58 0 31 137 210 248 324 6 7 12 21
12 30 0 14 -3 15 -12 6 -17 -17 -121 -15 -163 2 -24 11 -35 21 -35 36 0 32 18
59 37 56 10 -2 12 -1 6 1 -17 6 -16 9 5 41 19 31 26 39 113 142 216 256 379
416 379 373z m-5586 -129 c95 -63 335 -248 439 -338 40 -34 112 -89 160 -121
49 -32 97 -72 108 -87 23 -31 22 -32 -46 -29 -16 0 -43 -5 -58 -11 -23 -9 -31
-8 -37 2 -6 9 -10 7 -15 -9 -7 -24 23 -65 83 -113 35 -28 180 -161 330 -303
41 -38 80 -74 88 -78 8 -5 12 -13 8 -18 -3 -6 -19 -2 -37 9 -18 11 -48 28 -66
38 -19 10 -44 26 -55 36 -103 83 -286 219 -342 253 -18 11 -65 42 -106 69 -66
45 -97 63 -209 125 -81 44 -69 74 19 48 49 -14 108 -12 118 4 3 5 15 9 28 9
20 0 13 11 -48 74 -39 41 -110 116 -158 168 -48 51 -126 131 -173 178 -47 47
-95 98 -107 114 l-21 28 23 -7 c13 -4 46 -23 74 -41z m5994 -381 c12 -22 -2
-61 -23 -69 -35 -14 -61 46 -33 74 17 17 46 15 56 -5z m-4773 -283 c20 -23 14
-50 -13 -50 -48 0 -58 63 -11 69 3 1 14 -8 24 -19z m5237 -52 c77 -23 137
-124 123 -207 -8 -45 -51 -109 -92 -137 -84 -57 -239 -56 -398 1 -201 73 -328
87 -501 57 -62 -11 -126 -28 -144 -37 -17 -9 -34 -14 -37 -11 -7 7 16 36 29
36 5 0 24 11 41 24 91 68 284 93 458 61 87 -16 104 -21 174 -51 129 -55 278
-68 333 -27 76 56 94 137 41 191 -26 26 -39 32 -75 32 -52 0 -68 -21 -65 -87
1 -39 -1 -43 -22 -43 -44 0 -71 82 -48 143 10 27 82 67 120 67 13 0 41 -5 63
-12z m-6621 -93 c37 -20 121 -75 129 -85 3 -4 31 -22 62 -40 93 -52 85 -73
-10 -25 -28 14 -56 25 -63 25 -28 1 -234 115 -237 132 -6 31 50 28 119 -7z
m-437 -237 c23 -32 20 -48 -10 -48 -38 0 -73 39 -36 41 10 0 12 3 4 6 -6 2
-10 9 -6 14 9 16 32 10 48 -13z m1184 -100 c20 -20 14 -38 -12 -38 -30 0 -42
16 -26 35 15 18 22 19 38 3z m769 -114 c2 -6 -5 -14 -17 -17 -15 -4 -20 0 -20
15 0 21 30 23 37 2z m2899 -135 c7 -5 29 -49 49 -97 21 -48 51 -116 67 -152
17 -36 40 -87 53 -115 12 -27 59 -126 105 -220 119 -247 158 -328 164 -347 16
-50 21 2 19 189 -5 494 -16 624 -58 679 -15 20 -33 38 -41 41 -8 3 -14 12 -14
20 0 12 29 14 189 11 104 -2 192 -6 196 -10 4 -4 -7 -22 -24 -40 -40 -42 -58
-75 -70 -129 -21 -99 -34 -954 -18 -1209 4 -70 3 -121 -3 -130 -7 -11 -27 -15
-73 -14 -112 2 -111 2 -146 108 -17 52 -54 141 -81 199 -28 58 -50 110 -50
116 0 6 -4 11 -8 11 -4 0 -14 17 -21 38 -8 20 -19 44 -26 52 -7 8 -28 49 -48
90 -19 41 -55 118 -80 170 -24 52 -57 124 -71 160 -15 36 -33 78 -41 94 -13
29 -13 29 -25 7 -21 -41 -9 -785 15 -878 14 -57 47 -105 83 -122 53 -25 19
-31 -178 -31 -110 0 -200 4 -200 9 0 4 9 20 20 34 35 44 59 109 65 177 10 101
11 1120 1 1120 -4 0 -5 7 -2 16 7 19 -15 56 -68 111 -38 40 -38 43 -18 50 29
11 324 4 338 -8z m1439 -24 c43 -20 94 -49 112 -66 47 -41 82 -38 135 9 l41
37 -6 -145 c-4 -80 -7 -193 -7 -252 0 -138 -11 -140 -80 -15 -70 127 -111 183
-177 245 -61 57 -113 77 -175 69 -113 -15 -203 -155 -229 -357 -5 -47 -14
-114 -19 -150 -26 -188 -1 -420 65 -599 63 -173 167 -246 272 -193 45 23 90
72 98 105 24 101 21 249 -6 352 -14 51 -72 131 -110 151 -16 8 -29 21 -29 30
0 11 10 14 48 10 26 -3 127 -8 225 -12 97 -4 177 -11 177 -15 0 -4 -10 -20
-23 -36 -51 -63 -52 -70 -53 -368 0 -155 -4 -286 -8 -293 -4 -7 -2 -12 3 -12
6 0 11 -16 11 -36 0 -21 13 -60 31 -95 18 -33 29 -62 26 -65 -10 -10 -50 3
-88 29 -19 12 -56 52 -82 87 -27 36 -52 66 -56 68 -5 1 -35 -13 -67 -32 -75
-44 -128 -56 -208 -46 -204 25 -393 258 -461 565 -48 217 -44 453 11 639 48
160 164 325 266 377 134 69 234 72 363 14z m-1959 -100 c0 -71 4 -153 8 -182
10 -68 0 -119 -20 -102 -8 6 -14 16 -14 22 0 21 -80 143 -117 179 -21 19 -55
41 -76 48 -51 16 -142 16 -190 1 -62 -21 -68 -48 -70 -314 l-2 -228 40 3 c59
3 149 35 182 66 33 31 76 89 86 115 9 24 24 21 31 -6 4 -17 9 -322 6 -429 0
-31 -16 -20 -56 37 -21 31 -52 65 -70 75 -38 24 -128 27 -179 6 -34 -15 -35
-16 -36 -78 -3 -97 3 -483 6 -486 11 -12 160 0 213 16 119 38 193 98 260 212
65 111 70 98 45 -115 -16 -146 -30 -203 -53 -215 -10 -5 -66 -12 -126 -15 -60
-3 -194 -10 -299 -16 -339 -18 -385 -20 -385 -12 0 4 14 19 31 33 19 16 38 47
51 85 20 57 21 81 23 475 2 440 -6 688 -24 757 -7 26 -25 53 -47 73 -54 47
-42 57 83 65 202 12 634 53 642 60 3 3 17 5 31 3 l25 -3 1 -130z m-4256 85 c0
-6 -4 -10 -8 -10 -16 0 -84 -73 -98 -105 -23 -55 -17 -142 17 -256 17 -57 34
-108 38 -114 4 -5 16 -32 26 -60 10 -27 29 -72 41 -100 50 -107 164 -388 165
-403 0 -10 14 21 30 68 17 47 46 124 65 172 50 130 117 319 158 447 56 176 47
250 -40 316 -18 14 -34 29 -34 33 0 5 352 7 570 2 l35 0 -43 -36 c-48 -40 -76
-89 -100 -173 -29 -104 -20 -1261 12 -1492 17 -117 42 -174 96 -213 21 -16 37
-33 34 -38 -3 -4 -9 -6 -14 -3 -5 3 -18 1 -29 -4 -30 -17 -441 -92 -480 -89
l-36 3 35 22 c19 13 31 23 27 23 -4 0 5 19 21 43 40 59 59 120 66 207 7 82 9
406 6 870 l-2 295 -25 -55 c-14 -30 -48 -118 -75 -195 -28 -77 -73 -203 -100
-280 -28 -77 -60 -169 -73 -205 -12 -36 -36 -99 -53 -140 -17 -41 -42 -103
-55 -138 -22 -59 -26 -62 -41 -47 -9 9 -16 23 -16 30 0 14 -65 224 -80 260 -5
11 -27 67 -50 125 -23 58 -48 119 -55 135 -7 17 -25 62 -40 100 -53 139 -76
196 -104 257 -16 35 -35 82 -43 106 -7 23 -16 42 -20 42 -5 0 -8 -264 -8 -586
0 -554 6 -706 30 -739 4 -5 10 -26 14 -46 14 -78 108 -179 166 -179 18 0 30
-29 13 -31 -20 -2 -138 -33 -248 -66 -154 -46 -401 -100 -411 -91 -3 4 23 35
59 70 165 162 185 320 182 1408 -1 534 -3 611 -18 655 -22 68 -60 123 -113
165 -24 19 -44 37 -44 40 0 3 146 6 325 7 210 2 325 -1 325 -7z m7431 -82
c119 -59 221 -180 298 -356 35 -79 97 -314 106 -402 26 -244 -10 -527 -91
-712 -39 -89 -161 -237 -237 -289 -34 -23 -64 -45 -67 -49 -3 -4 -21 -10 -41
-14 -28 -5 -39 -2 -53 13 -23 25 -14 55 29 101 32 34 88 142 118 230 60 171
82 350 74 619 -6 255 -42 430 -118 583 -55 109 -114 158 -192 158 -44 0 -104
-31 -135 -69 -24 -30 -72 -130 -83 -173 -49 -194 -59 -307 -48 -573 8 -208 23
-356 41 -413 9 -29 7 -38 -16 -72 -14 -21 -43 -57 -64 -79 -21 -23 -37 -43
-35 -45 2 -2 -4 -9 -12 -16 -14 -12 -21 -9 -49 22 -26 29 -40 61 -69 169 -21
74 -42 172 -48 219 -5 47 -14 103 -19 125 -5 22 -10 108 -10 190 0 329 78 572
235 729 107 107 199 147 326 143 75 -2 94 -6 160 -39z m-4376 -28 c79 -30 145
-96 174 -175 18 -47 22 -82 23 -169 1 -99 -2 -118 -26 -176 -48 -118 -139
-200 -263 -236 -30 -9 -51 -20 -47 -25 3 -6 12 -8 19 -5 13 5 54 -22 93 -61
35 -36 80 -135 92 -204 76 -421 207 -636 407 -671 59 -10 79 -9 139 6 38 9 88
29 112 43 51 29 62 25 37 -14 -47 -74 -120 -115 -245 -139 -168 -32 -306 12
-433 138 -61 60 -83 90 -120 168 -57 120 -88 214 -122 365 -45 202 -78 276
-135 303 -55 26 -153 8 -166 -30 -9 -29 5 -422 18 -487 8 -43 18 -62 54 -97
l44 -42 -27 -6 c-16 -3 -71 -12 -123 -21 -52 -8 -115 -20 -140 -25 -80 -18
-150 -20 -150 -6 0 8 7 19 16 27 8 7 26 34 39 60 42 83 48 185 42 736 -6 485
-7 505 -28 553 -22 51 -92 125 -109 115 -6 -4 -10 -2 -10 4 0 6 10 13 23 15
52 12 136 25 187 31 30 3 91 12 135 20 44 8 116 17 160 21 44 3 82 8 85 11 13
13 189 -6 245 -27z m-1135 -111 c0 -11 -11 -35 -25 -53 -40 -52 -37 -174 10
-456 8 -47 17 -103 19 -125 3 -22 14 -87 25 -145 10 -58 26 -150 35 -205 9
-55 25 -140 36 -190 11 -49 22 -108 26 -130 12 -73 52 -133 108 -162 38 -20
26 -26 -79 -43 -166 -26 -252 -40 -303 -52 -61 -13 -73 -7 -45 25 47 50 63 98
63 185 0 83 -18 273 -26 282 -4 4 -176 -26 -292 -50 -31 -7 -56 -19 -62 -30
-5 -10 -15 -78 -21 -151 -16 -176 -5 -233 53 -290 l40 -39 -30 0 c-17 0 -68
-9 -114 -20 -182 -45 -288 -60 -288 -42 0 5 14 21 31 38 38 36 105 173 114
234 4 25 15 88 25 140 64 340 132 811 144 1003 l5 78 -49 52 c-26 28 -46 55
-44 59 2 4 26 10 52 13 26 3 67 11 92 16 24 6 69 12 100 15 30 2 75 9 100 14
35 7 175 31 293 49 4 0 7 -8 7 -20z m5410 -369 c37 -40 58 -87 77 -173 40
-189 3 -406 -122 -712 -28 -71 -35 -99 -31 -130 9 -64 15 -125 21 -195 8 -104
25 -273 31 -297 4 -21 10 -23 62 -23 65 0 166 -30 226 -68 177 -111 261 -319
207 -515 -42 -154 -99 -242 -211 -329 -50 -38 -136 -78 -170 -78 -19 0 -21 -4
-15 -27 26 -104 27 -295 3 -408 -13 -58 -60 -161 -91 -197 -49 -56 -167 -108
-245 -108 -49 0 -142 36 -183 71 -19 16 -37 29 -40 29 -4 0 -21 21 -37 48 -70
108 -61 212 26 302 81 83 175 89 249 15 28 -28 33 -40 33 -78 0 -25 -7 -57
-15 -73 -17 -33 -89 -92 -122 -100 -30 -8 -29 -25 4 -64 49 -59 133 -70 207
-26 57 33 90 76 117 152 18 49 23 88 27 230 5 183 0 208 -40 210 -222 9 -349
48 -489 151 -124 90 -194 202 -229 363 -36 162 -23 281 48 460 29 71 35 83
100 185 46 71 136 189 180 235 148 155 328 441 392 620 20 55 24 85 24 200 1
128 -14 220 -35 220 -4 0 -9 8 -11 18 -3 14 -6 13 -21 -9 -27 -41 -37 -120
-38 -313 0 -99 -3 -189 -7 -198 -15 -37 -31 2 -47 117 -44 305 -10 506 88 518
17 2 36 5 40 5 5 1 21 -11 37 -28z m-2321 -1260 c6 -28 11 -65 11 -81 0 -108
47 -166 162 -199 102 -29 102 -30 92 -38 -5 -5 -43 -19 -84 -31 -48 -15 -84
-33 -101 -52 -29 -32 -74 -149 -85 -224 -20 -143 -41 -123 -58 55 -5 60 -35
135 -67 168 -19 19 -55 39 -97 53 -37 12 -71 24 -75 26 -18 10 12 25 89 44
100 24 126 49 143 140 26 140 33 174 38 182 11 18 22 3 32 -43z m-491 -47 c-4
-22 -58 -31 -58 -10 0 20 10 27 37 27 18 0 24 -5 21 -17z m1205 -87 c6 -15
-19 -56 -33 -56 -12 0 -24 46 -15 59 9 16 42 13 48 -3z m-3449 -211 c69 -14
172 -64 221 -107 59 -51 97 -142 95 -228 -1 -93 -68 -193 -159 -240 -59 -30
-172 -28 -232 3 -90 48 -133 174 -80 231 27 28 62 34 80 12 8 -10 7 -24 -8
-56 -22 -50 -14 -88 26 -120 45 -35 87 -41 150 -19 31 10 65 27 76 37 34 30
59 92 59 146 0 79 -32 139 -103 191 -86 63 -148 80 -299 79 -122 -1 -153 -6
-286 -49 -108 -36 -388 -183 -542 -286 -40 -27 -75 -49 -78 -49 -2 0 -29 -18
-59 -40 -30 -22 -57 -40 -59 -40 -3 0 -26 -15 -50 -32 -24 -18 -67 -49 -95
-68 -28 -19 -70 -49 -94 -66 -23 -17 -62 -42 -87 -55 -25 -14 -70 -41 -100
-60 -90 -57 -189 -105 -290 -139 -86 -30 -107 -33 -220 -34 l-126 -1 -79 40
c-78 39 -182 125 -168 138 3 4 1 7 -5 7 -7 0 -12 6 -12 13 0 7 -9 31 -21 52
-26 51 -20 134 16 204 27 54 66 101 84 101 6 0 11 4 11 9 0 17 85 43 139 42
77 -1 134 -31 160 -85 29 -58 27 -90 -8 -126 -15 -17 -30 -30 -33 -30 -3 0 -3
22 -1 50 4 49 3 49 -38 70 -22 12 -53 22 -67 24 -31 2 -78 -22 -112 -59 -27
-29 -49 -107 -43 -150 10 -62 61 -127 123 -156 14 -6 33 -15 43 -20 10 -5 54
-14 98 -20 91 -13 115 -8 264 49 135 51 256 124 717 435 100 67 195 128 222
143 12 6 63 34 115 63 52 28 96 51 98 51 2 0 52 21 111 46 59 26 121 50 137
54 17 5 63 18 104 30 134 38 268 43 405 15z m566 -34 c15 -28 -21 -71 -47 -55
-23 14 -28 41 -13 59 17 21 47 19 60 -4z m885 -108 c22 -34 69 -103 105 -153
36 -50 72 -104 81 -120 8 -15 22 -34 30 -43 8 -8 41 -54 74 -102 33 -48 88
-122 121 -165 34 -43 85 -111 112 -153 28 -41 58 -81 66 -90 9 -9 16 -18 16
-20 0 -2 -21 -12 -47 -22 -88 -32 -287 -113 -356 -145 -38 -17 -75 -29 -83
-26 -8 3 -14 1 -14 -4 0 -6 -15 -16 -32 -24 -29 -12 -35 -12 -47 3 -12 14 -12
13 -6 -6 5 -18 2 -23 -12 -23 -10 0 -27 -7 -37 -15 -29 -22 -33 -19 -34 21 -1
20 -4 46 -7 58 -5 17 -4 18 4 6 7 -9 11 -10 11 -3 0 6 -4 14 -8 17 -5 3 -10
146 -11 318 -1 172 -4 418 -6 547 -2 128 -2 238 1 243 7 10 18 -4 79 -99z
m-167 -483 c-3 -452 -6 -582 -16 -592 -10 -10 -15 -10 -22 2 -8 13 -10 12 -10
-2 0 -21 -7 -22 -43 -5 -15 6 -25 17 -23 22 36 88 37 90 21 71 -8 -11 -15 -26
-15 -33 0 -7 -4 -13 -10 -13 -5 0 -10 -7 -10 -16 0 -9 -6 -14 -12 -11 -8 2
-13 19 -12 38 1 34 1 34 -9 7 -8 -20 -16 -26 -31 -24 -20 4 -24 25 -7 36 5 3
12 16 16 29 11 36 -13 16 -30 -25 -14 -34 -15 -35 -42 -21 -15 8 -52 20 -80
28 -29 7 -53 16 -53 21 0 4 -3 7 -7 6 -17 -3 -83 15 -83 23 0 5 -3 8 -7 7 -5
-1 -17 1 -28 4 -11 4 -46 14 -77 23 -32 9 -58 21 -58 26 0 8 178 276 301 452
30 43 59 85 64 95 6 9 13 19 16 22 4 3 42 61 86 130 108 171 116 183 128 196
5 6 19 27 30 47 11 20 21 37 23 37 2 0 2 -261 0 -580z m2457 380 c54 -20 103
-61 141 -116 35 -51 38 -61 42 -144 4 -72 0 -103 -18 -162 -23 -75 -99 -202
-161 -269 -42 -45 -187 -171 -214 -187 -20 -11 -20 -11 1 -12 11 0 25 5 32 12
7 7 12 9 12 6 0 -3 33 1 73 8 291 56 497 -37 497 -223 0 -54 -27 -115 -66
-150 -80 -73 -224 -32 -224 63 0 40 25 47 39 11 21 -54 58 -58 131 -12 43 27
55 61 45 119 -9 46 -46 82 -122 118 -53 25 -73 29 -150 29 -158 -1 -394 -59
-469 -116 -98 -76 -156 -116 -161 -111 -4 3 2 22 13 42 22 42 101 113 234 209
316 230 433 385 434 580 1 113 -25 169 -99 214 -63 38 -118 48 -177 32 -51
-15 -79 -36 -107 -82 -33 -53 -28 -104 13 -145 32 -32 37 -33 80 -28 39 6 46
4 46 -10 0 -39 -19 -56 -65 -56 -67 0 -111 25 -135 78 -44 94 -21 208 56 275
58 49 187 62 279 27z m-1561 -53 c13 -9 16 -20 12 -34 -14 -44 -66 -34 -66 12
0 37 22 46 54 22z m-3856 -6 c22 -13 11 -65 -14 -69 -28 -4 -48 22 -40 53 6
25 29 32 54 16z m4644 -503 c-35 -73 -80 -167 -99 -208 -68 -143 -156 -315
-165 -318 -4 -2 -8 -10 -8 -18 0 -8 -28 -67 -61 -132 -34 -64 -102 -197 -151
-296 l-89 -178 -22 20 c-12 11 -49 34 -82 51 -33 17 -100 58 -150 91 -49 33
-97 63 -105 67 -8 3 -17 9 -20 12 -3 4 -22 15 -43 26 -21 11 -46 27 -55 36 -9
8 -24 18 -33 21 -8 3 -55 33 -105 65 -49 33 -106 68 -126 77 -20 10 -42 24
-49 32 -6 8 -17 14 -24 14 -8 0 -15 4 -17 8 -1 5 -32 29 -68 53 -50 34 -60 45
-45 47 11 3 25 8 30 12 6 4 78 35 160 69 83 34 170 71 195 83 25 11 63 27 84
34 22 8 44 18 50 23 6 5 58 28 116 51 58 23 184 75 280 115 96 40 222 92 280
115 58 23 110 45 115 49 6 4 33 16 60 26 28 10 82 33 120 51 39 18 75 33 81
34 6 0 -18 -60 -54 -132z m-224 87 c-3 -3 -45 -17 -94 -32 -49 -14 -98 -32
-109 -39 -11 -8 -26 -14 -35 -14 -8 0 -27 -6 -42 -14 -14 -8 -43 -19 -65 -26
-21 -7 -60 -24 -88 -37 -27 -14 -63 -25 -80 -25 -22 1 -25 -2 -15 -8 8 -6 11
-10 5 -10 -5 0 -21 -3 -34 -7 -17 -4 -22 -3 -17 5 4 7 2 12 -5 12 -11 0 -89
72 -89 83 0 4 37 10 230 43 312 52 384 65 389 69 2 3 16 5 29 5 14 0 23 -2 20
-5z m-3065 -86 c51 -17 96 -35 102 -40 5 -5 16 -9 25 -9 8 0 101 -31 205 -68
307 -111 343 -123 497 -168 80 -23 155 -47 165 -52 10 -6 108 -37 218 -70 217
-66 385 -123 385 -133 0 -3 -33 -23 -72 -44 -40 -20 -89 -52 -108 -71 -20 -19
-44 -34 -53 -34 -10 0 -45 -18 -77 -40 -32 -22 -63 -40 -67 -40 -4 0 -31 -17
-59 -39 -28 -21 -55 -40 -60 -42 -8 -4 -305 -202 -358 -239 -23 -16 -47 -36
-105 -87 -44 -40 -54 -41 -72 -5 -7 15 -25 45 -39 67 -27 44 -115 197 -162
285 -17 30 -36 62 -42 70 -7 8 -18 29 -26 45 -8 17 -46 84 -83 150 -37 66 -70
130 -73 142 -4 13 -10 23 -14 23 -4 0 -13 12 -19 28 -7 15 -22 45 -35 67 -13
22 -38 67 -54 100 -17 33 -54 98 -81 144 -28 46 -51 86 -51 88 0 8 28 1 113
-28z m236 6 c32 -8 146 -24 255 -35 108 -11 216 -24 239 -29 23 -5 75 -12 115
-16 39 -4 72 -9 72 -11 0 -3 -11 -22 -25 -44 -16 -26 -33 -40 -48 -41 l-22 -2
23 -4 c24 -5 31 -23 8 -23 -7 0 -26 4 -42 9 -189 58 -269 91 -222 91 6 0 8 3
5 6 -4 4 -13 1 -22 -6 -12 -10 -23 -10 -58 3 -44 16 -209 66 -290 87 -26 7
-50 17 -53 21 -7 12 -1 11 65 -6z m-1227 -329 c93 -22 221 -120 247 -188 13
-35 4 -35 -39 0 -105 86 -172 122 -271 147 -82 21 -100 31 -79 45 21 13 75 12
142 -4z m648 -17 c0 -11 -5 -19 -11 -19 -5 0 -7 -5 -3 -11 4 -7 -2 -9 -17 -7
-26 3 -37 32 -19 52 15 19 50 8 50 -15z m-2002 -261 c-22 -70 -28 -191 -14
-275 10 -64 -2 -70 -34 -16 -46 78 -36 260 17 324 42 50 54 38 31 -33z m4185
-67 c56 -37 131 -85 167 -105 35 -21 77 -49 93 -62 16 -13 33 -24 38 -24 5 0
22 -8 37 -19 15 -10 65 -44 112 -75 140 -91 340 -233 340 -240 0 -1 -40 -2
-89 -1 -51 0 -87 -4 -83 -9 9 -16 -139 2 -233 27 -128 36 -227 65 -250 76 -11
5 -35 14 -52 21 -18 7 -33 16 -33 20 0 4 -15 10 -32 13 -154 29 -249 43 -279
41 -18 -2 -53 -4 -77 -5 -24 -1 -45 -5 -47 -9 -3 -4 -15 -5 -27 -3 -13 2 -46
-5 -73 -17 -28 -12 -70 -26 -95 -30 -78 -15 -134 -31 -155 -44 -43 -28 -194
-69 -313 -86 -35 -5 -67 -12 -72 -15 -5 -3 -11 -1 -14 4 -3 5 0 11 7 14 6 3
50 33 97 68 47 35 128 92 180 127 52 34 106 71 119 82 12 11 55 39 95 62 39
22 114 70 167 104 54 35 99 64 102 64 3 0 34 18 69 39 35 21 82 48 103 60 45
24 43 25 198 -78z m-3313 58 c77 -12 158 -47 166 -71 3 -10 9 -18 13 -18 4 0
20 -23 36 -51 22 -42 27 -60 23 -100 -9 -90 -83 -138 -161 -105 -45 18 -41 35
13 58 22 9 43 25 46 35 3 10 9 25 13 33 18 33 -53 112 -120 134 -63 20 -115
20 -197 1 -91 -22 -168 -65 -275 -155 -54 -45 -115 -162 -152 -293 -60 -214
16 -538 165 -697 16 -18 30 -35 30 -39 0 -3 16 -19 36 -36 158 -130 229 -158
396 -158 59 0 111 3 115 6 9 10 -76 251 -104 293 -14 22 -21 24 -107 24 -147
1 -287 61 -370 160 -43 51 -79 131 -74 164 2 17 8 11 26 -24 50 -101 117 -165
220 -215 46 -23 155 -38 208 -30 43 6 43 6 28 30 -8 12 -33 35 -55 50 -50 36
-43 44 16 16 24 -11 47 -21 50 -21 3 0 19 -10 35 -21 24 -18 38 -21 77 -16 54
6 253 96 253 114 0 21 -20 25 -68 14 -170 -40 -308 -47 -378 -21 -14 6 -37 10
-50 10 -67 0 -225 106 -274 183 -41 64 -38 76 8 31 82 -81 209 -147 312 -163
147 -23 289 -12 430 35 58 20 299 145 429 224 133 80 275 149 324 157 37 6 67
33 67 61 0 9 -5 10 -17 3 -10 -5 -34 -11 -53 -14 -19 -3 -53 -13 -75 -22 -52
-22 -357 -174 -370 -185 -26 -22 -219 -112 -288 -135 -79 -26 -109 -31 -206
-34 -44 -1 -51 -3 -42 -15 10 -11 0 -13 -61 -11 -126 5 -229 38 -327 104 -85
58 -171 170 -171 223 0 33 16 45 25 18 18 -57 227 -250 271 -250 8 0 43 -10
77 -21 97 -33 224 -23 392 33 99 33 257 107 350 163 96 59 232 125 335 162 76
28 107 34 153 31 31 -2 58 1 60 5 1 4 37 9 81 10 l78 2 -44 13 c-29 9 -81 12
-163 9 -101 -4 -135 -9 -215 -36 -109 -36 -126 -43 -198 -88 -29 -18 -54 -33
-57 -33 -2 0 -27 -13 -55 -30 -103 -61 -249 -132 -311 -151 -94 -29 -239 -36
-311 -15 -129 38 -218 150 -218 275 0 83 42 151 102 166 28 7 57 -3 42 -14 -5
-3 -23 -24 -41 -47 -73 -95 -30 -224 97 -289 85 -43 217 -43 317 1 17 8 36 14
41 14 14 0 154 75 217 115 63 41 304 157 370 178 73 24 203 47 260 46 146 -1
300 -61 362 -142 29 -39 36 -69 10 -49 -7 5 -32 12 -57 15 -117 14 -188 -92
-146 -220 33 -98 129 -177 296 -243 127 -50 323 -45 447 11 24 10 47 19 52 19
6 0 94 41 196 90 102 50 189 90 191 90 3 0 12 6 20 14 7 8 37 19 66 25 28 7
56 15 62 20 19 14 151 50 230 63 162 25 335 -22 639 -173 100 -50 187 -95 193
-100 6 -5 29 -16 50 -24 l39 -15 -55 4 c-70 5 -197 41 -230 64 -50 36 -250
122 -284 122 -8 0 -18 5 -21 10 -4 6 -10 8 -15 5 -5 -3 -30 3 -57 12 -59 22
-240 26 -316 8 -69 -17 -207 -63 -221 -74 -6 -5 -49 -26 -96 -47 -47 -21 -106
-51 -132 -67 -53 -32 -284 -124 -329 -131 -15 -2 -45 -10 -66 -17 -43 -14
-225 -18 -293 -6 -41 7 -198 64 -210 77 -3 3 -18 12 -35 20 -16 8 -64 49 -106
90 -84 83 -119 152 -119 235 0 50 26 125 44 126 14 1 -24 17 -42 18 -7 1 -24
-10 -37 -24 -22 -21 -25 -33 -25 -94 0 -80 32 -181 77 -240 52 -69 150 -148
244 -197 95 -48 374 -95 437 -72 12 4 47 9 77 10 30 2 55 6 55 11 0 4 11 7 25
7 13 0 34 4 47 9 13 5 48 17 78 26 30 10 105 42 165 70 61 29 120 55 133 59
12 4 22 12 22 17 0 5 8 9 18 9 10 0 22 4 28 9 5 5 38 21 74 36 36 14 74 30 85
34 135 58 345 76 450 38 22 -8 58 -20 80 -27 22 -6 112 -47 200 -90 88 -42
171 -80 185 -84 68 -17 218 -18 289 -2 126 29 288 126 441 265 47 42 105 92
130 111 25 19 47 38 50 41 10 11 136 95 175 116 22 11 78 33 126 47 99 30 239
35 327 12 113 -30 252 -124 252 -169 0 -15 -3 -17 -13 -9 -7 6 -38 14 -68 18
-53 6 -58 5 -93 -26 -51 -45 -66 -79 -66 -150 0 -68 8 -89 52 -132 73 -71 171
-108 289 -108 95 0 166 25 378 132 107 53 215 104 240 112 70 22 178 37 219
31 74 -11 147 -28 156 -37 6 -4 16 -8 23 -8 8 0 39 -16 69 -35 30 -19 56 -35
59 -35 3 0 27 -24 55 -52 47 -50 97 -134 86 -145 -3 -3 -31 19 -63 49 -63 59
-146 105 -209 115 -21 3 -46 9 -54 13 -14 7 -123 -16 -181 -38 -15 -6 -29 -9
-32 -6 -2 2 -69 -29 -148 -70 -79 -41 -201 -103 -271 -138 -70 -35 -127 -69
-128 -75 0 -7 1 -13 3 -13 1 0 20 -7 42 -14 36 -13 43 -12 79 6 21 11 44 24
50 29 6 5 25 20 42 33 53 43 195 126 258 152 34 14 70 29 81 34 11 6 50 14 86
19 136 19 255 -30 324 -131 47 -70 44 -81 -7 -31 -47 45 -94 71 -176 98 -84
27 -173 14 -307 -46 -35 -15 -190 -118 -257 -170 l-46 -36 66 -31 c37 -17 77
-34 90 -37 12 -4 22 -11 22 -16 0 -15 -52 -10 -136 14 -87 25 -97 25 -128 -7
-12 -12 -43 -38 -71 -59 -66 -50 -155 -137 -155 -151 0 -6 26 -24 58 -40 31
-16 68 -35 82 -43 14 -8 42 -21 63 -30 20 -9 37 -22 37 -30 0 -7 -2 -13 -4
-13 -12 0 -183 65 -201 76 -11 7 -36 16 -56 19 -36 7 -39 5 -160 -117 -147
-147 -174 -178 -162 -188 31 -29 188 -101 247 -113 39 -7 72 -19 74 -26 7 -22
-144 -10 -193 16 -22 11 -68 35 -103 52 l-64 32 -91 -90 c-51 -49 -112 -107
-136 -128 -109 -93 -108 -90 -34 -118 26 -10 50 -21 53 -25 7 -9 59 -27 98
-35 17 -4 32 -11 32 -17 0 -6 -11 -8 -25 -6 -14 3 -25 2 -25 -2 0 -14 -80 7
-157 41 -53 23 -78 30 -81 21 -2 -7 -8 -12 -14 -12 -6 0 -30 -15 -52 -34 -74
-60 -239 -166 -260 -167 -19 0 14 -12 114 -39 55 -16 240 -12 326 6 96 19 151
37 230 75 34 16 65 29 68 29 9 0 138 80 167 104 14 11 43 34 65 50 40 31 194
182 229 226 60 74 115 149 115 156 0 4 7 15 15 24 15 17 72 118 162 290 95
181 146 238 288 327 57 36 159 58 219 49 96 -16 213 -97 257 -179 18 -33 23
-59 23 -122 1 -70 -3 -88 -29 -140 -27 -54 -36 -63 -95 -93 -53 -27 -75 -32
-120 -31 -94 3 -117 20 -151 103 -26 65 7 146 61 146 38 0 44 -13 25 -49 -22
-43 -19 -67 12 -96 58 -53 156 -21 193 62 24 55 25 97 5 158 -15 43 -76 115
-99 115 -6 0 -24 7 -41 16 -16 8 -55 16 -85 16 -165 2 -280 -90 -397 -319 -28
-54 -77 -140 -110 -191 -32 -50 -76 -120 -97 -154 -105 -167 -301 -353 -492
-468 -139 -84 -155 -91 -334 -144 -154 -45 -365 -41 -542 12 -32 9 -58 20 -58
25 0 4 -9 7 -20 7 -11 0 -36 9 -57 19 -21 10 -56 27 -78 37 -22 10 -51 25 -65
34 -14 9 -52 27 -85 39 -33 12 -66 26 -74 30 -8 4 -22 2 -30 -5 -49 -40 -156
-109 -226 -145 -44 -23 -82 -44 -85 -48 -3 -4 -13 -10 -22 -14 -39 -14 -20
-33 67 -66 33 -12 85 -34 115 -49 30 -15 69 -32 85 -38 l30 -12 -29 -7 c-31
-8 -32 -8 -218 58 l-126 44 -65 -27 c-36 -15 -102 -53 -146 -85 -56 -38 -87
-55 -99 -50 -14 5 -8 14 33 53 66 62 100 88 159 120 27 15 51 32 52 37 3 10
-55 56 -106 84 -14 8 -27 17 -30 20 -13 17 -109 71 -126 71 -11 0 -28 6 -39
14 -50 34 -128 36 -195 4 -52 -25 -171 -108 -215 -150 -16 -16 -39 -34 -49
-42 -23 -16 -13 -36 17 -36 12 0 72 -16 133 -36 103 -32 117 -40 171 -92 33
-31 69 -78 81 -103 29 -60 30 -147 1 -205 -38 -79 -131 -142 -224 -151 -128
-13 -233 114 -180 217 18 34 54 47 84 30 26 -13 26 -25 1 -57 -39 -50 -13
-108 51 -114 103 -9 151 16 194 102 33 63 32 118 -1 178 -42 75 -112 122 -239
161 -150 47 -173 45 -327 -30 -119 -57 -229 -88 -228 -64 1 5 31 23 68 41 37
18 98 49 135 70 l68 38 -28 22 c-15 13 -33 23 -40 23 -6 0 -13 4 -15 8 -4 12
-103 57 -168 77 -30 9 -64 21 -75 26 -35 16 -118 27 -140 19 -12 -4 -55 -24
-96 -43 -83 -40 -139 -57 -186 -57 -48 0 -40 12 25 38 74 30 215 107 220 120
2 8 -181 105 -253 132 -11 5 -41 17 -67 29 -26 12 -52 21 -58 21 -6 0 -45 -17
-88 -39 -42 -21 -93 -43 -113 -50 -41 -13 -139 -21 -139 -11 0 4 26 17 58 28
64 24 199 101 206 118 2 6 -19 26 -47 44 -64 42 -263 129 -296 130 -14 0 -76
-25 -139 -56 -159 -78 -183 -85 -297 -91 -78 -4 -114 -2 -160 11 -59 17 -175
65 -185 76 -3 3 -20 15 -37 26 -18 11 -76 62 -129 113 -71 69 -92 96 -82 102
10 7 8 9 -7 9 -11 0 -25 10 -31 23 -6 12 -31 58 -55 103 -41 74 -46 80 -69 73
-79 -22 -242 -5 -371 40 -196 67 -391 313 -448 566 -49 221 -30 413 60 573 17
32 38 69 46 84 26 49 164 166 248 210 112 58 182 69 315 47z m-297 -366 c2
-54 12 -117 20 -140 20 -54 5 -56 -27 -4 -21 32 -25 53 -28 127 -2 85 3 114
21 114 5 0 11 -44 14 -97z m6154 -137 c-4 -9 -13 -13 -22 -10 -18 7 -20 31 -2
37 17 6 31 -9 24 -27z m1350 -154 c66 -84 69 -212 7 -335 -34 -69 -94 -136
-121 -137 -29 0 -29 15 0 54 63 83 105 265 76 328 -14 31 -56 61 -96 67 -31 6
-32 7 -20 31 22 45 116 40 154 -8z m-7147 -1237 c0 -22 45 -117 67 -142 23
-26 106 -69 165 -87 23 -6 43 -16 45 -22 2 -6 -20 -19 -49 -29 -121 -39 -207
-145 -208 -254 l-1 -36 -19 35 c-23 43 -25 112 -5 170 8 24 14 44 12 46 -4 4
-142 32 -199 40 -27 3 -48 10 -48 15 0 5 2 9 4 9 2 0 47 11 100 25 53 14 112
25 132 25 l35 0 -19 28 c-39 57 -58 134 -41 173 11 29 29 31 29 4z m6238 -99
c93 -33 140 -95 149 -195 4 -44 1 -66 -16 -102 -27 -56 -95 -107 -154 -115
-106 -13 -214 129 -140 183 26 20 59 -6 55 -44 -2 -22 4 -35 29 -57 30 -27 33
-28 71 -15 50 16 74 47 83 104 10 71 -21 126 -86 155 -100 43 -190 27 -303
-55 -42 -29 -78 -50 -81 -45 -14 23 65 118 126 151 89 47 193 61 267 35z
m-5207 -261 c74 -8 296 -88 404 -145 55 -30 152 -85 215 -123 101 -60 317
-171 375 -191 17 -6 18 -9 5 -16 -50 -28 -287 72 -600 251 -155 88 -310 146
-417 155 -113 9 -247 -10 -302 -45 -129 -79 -176 -219 -115 -347 40 -85 174
-115 240 -54 34 33 30 56 -16 86 -22 15 -40 33 -40 40 0 28 39 54 79 54 55 0
101 -52 101 -113 0 -59 -36 -116 -90 -146 -57 -32 -188 -43 -209 -17 -7 9 -19
16 -25 16 -19 1 -87 57 -116 97 -34 46 -51 126 -39 188 21 114 92 201 211 261
115 58 176 67 339 49z m3393 -470 c71 -10 160 -51 152 -70 -3 -9 -2 -14 3 -10
18 10 61 -55 61 -92 0 -92 -95 -169 -146 -119 -17 18 -18 26 -1 26 7 0 28 14
45 31 25 25 31 37 26 58 -9 38 -29 56 -85 80 -63 28 -143 30 -234 7 -75 -19
-97 -28 -280 -117 -137 -66 -186 -82 -235 -77 -48 4 -41 19 18 38 46 15 141
65 152 80 3 4 50 30 105 59 114 58 226 101 270 102 16 0 39 4 50 9 11 5 27 7
35 5 8 -2 37 -6 64 -10z m1102 7 c17 -11 26 -49 14 -57 -29 -18 -71 25 -49 51
13 16 19 17 35 6z"/>
<path d="M3968 8023 c7 -3 16 -2 19 1 4 3 -2 6 -13 5 -11 0 -14 -3 -6 -6z"/>
<path d="M5058 9101 c-112 -56 -172 -236 -171 -511 2 -272 63 -443 176 -491
44 -18 133 5 170 44 93 99 131 309 109 592 -19 235 -83 369 -185 385 -39 6
-55 3 -99 -19z"/>
<path d="M4815 8680 c-3 -5 -1 -10 4 -10 6 0 11 5 11 10 0 6 -2 10 -4 10 -3 0
-8 -4 -11 -10z"/>
<path d="M4830 8321 c0 -6 4 -13 10 -16 6 -3 7 1 4 9 -7 18 -14 21 -14 7z"/>
<path d="M3050 8950 c0 -5 5 -10 11 -10 5 0 7 5 4 10 -3 6 -8 10 -11 10 -2 0
-4 -4 -4 -10z"/>
<path d="M5945 9120 c-3 -6 1 -7 9 -4 18 7 21 14 7 14 -6 0 -13 -4 -16 -10z"/>
<path d="M6595 8640 c-3 -5 -1 -10 4 -10 6 0 11 5 11 10 0 6 -2 10 -4 10 -3 0
-8 -4 -11 -10z"/>
<path d="M6476 8158 c3 -5 10 -6 15 -3 13 9 11 12 -6 12 -8 0 -12 -4 -9 -9z"/>
<path d="M6790 7568 c0 -6 3 -8 7 -5 3 4 13 1 22 -6 14 -11 14 -10 2 6 -15 20
-31 22 -31 5z"/>
<path d="M6210 7509 c0 -5 5 -7 10 -4 6 3 10 8 10 11 0 2 -4 4 -10 4 -5 0 -10
-5 -10 -11z"/>
<path d="M6755 6670 c-3 -5 -1 -10 4 -10 6 0 11 5 11 10 0 6 -2 10 -4 10 -3 0
-8 -4 -11 -10z"/>
<path d="M6700 6540 c0 -5 5 -10 11 -10 5 0 7 5 4 10 -3 6 -8 10 -11 10 -2 0
-4 -4 -4 -10z"/>
<path d="M7647 7589 c7 -7 15 -10 18 -7 3 3 -2 9 -12 12 -14 6 -15 5 -6 -5z"/>
<path d="M7197 6951 c-4 -17 -3 -21 5 -13 5 5 8 16 6 23 -3 8 -7 3 -11 -10z"/>
<path d="M7505 6140 c-3 -5 -1 -10 4 -10 6 0 11 5 11 10 0 6 -2 10 -4 10 -3 0
-8 -4 -11 -10z"/>
<path d="M5190 7210 c0 -5 5 -10 11 -10 5 0 7 5 4 10 -3 6 -8 10 -11 10 -2 0
-4 -4 -4 -10z"/>
<path d="M5505 6910 c-3 -5 -1 -10 4 -10 6 0 11 5 11 10 0 6 -2 10 -4 10 -3 0
-8 -4 -11 -10z"/>
<path d="M5498 6873 c7 -3 16 -2 19 1 4 3 -2 6 -13 5 -11 0 -14 -3 -6 -6z"/>
<path d="M1230 7560 c0 -5 5 -10 11 -10 5 0 7 5 4 10 -3 6 -8 10 -11 10 -2 0
-4 -4 -4 -10z"/>
<path d="M1115 7500 c3 -5 11 -10 16 -10 6 0 7 5 4 10 -3 6 -11 10 -16 10 -6
0 -7 -4 -4 -10z"/>
<path d="M2146 7359 c-13 -63 -15 -89 -7 -89 9 0 25 99 17 107 -3 3 -7 -5 -10
-18z"/>
<path d="M1091 6784 c0 -11 3 -14 6 -6 3 7 2 16 -1 19 -3 4 -6 -2 -5 -13z"/>
<path d="M1521 6554 c0 -11 3 -14 6 -6 3 7 2 16 -1 19 -3 4 -6 -2 -5 -13z"/>
<path d="M1760 6470 c0 -5 5 -10 10 -10 6 0 10 5 10 10 0 6 -4 10 -10 10 -5 0
-10 -4 -10 -10z"/>
<path d="M2230 6470 c-9 -6 -10 -10 -3 -10 6 0 15 5 18 10 8 12 4 12 -15 0z"/>
<path d="M2246 6133 c-6 -14 -5 -15 5 -6 7 7 10 15 7 18 -3 3 -9 -2 -12 -12z"/>
<path d="M1156 6061 c-4 -7 -5 -15 -2 -18 9 -9 19 4 14 18 -4 11 -6 11 -12 0z"/>
<path d="M2241 5734 c0 -11 3 -14 6 -6 3 7 2 16 -1 19 -3 4 -6 -2 -5 -13z"/>
<path d="M2132 5720 c0 -14 2 -19 5 -12 2 6 2 18 0 25 -3 6 -5 1 -5 -13z"/>
<path d="M2110 5610 c-12 -8 -10 -10 8 -10 13 0 20 4 17 10 -7 12 -6 12 -25 0z"/>
<path d="M9130 7160 c-9 -6 -10 -10 -3 -10 6 0 15 5 18 10 8 12 4 12 -15 0z"/>
<path d="M9125 7100 c-3 -5 -1 -10 4 -10 6 0 11 5 11 10 0 6 -2 10 -4 10 -3 0
-8 -4 -11 -10z"/>
<path d="M8375 7090 c-3 -5 -1 -10 4 -10 6 0 11 5 11 10 0 6 -2 10 -4 10 -3 0
-8 -4 -11 -10z"/>
<path d="M9180 6450 c0 -5 4 -10 9 -10 6 0 13 5 16 10 3 6 -1 10 -9 10 -9 0
-16 -4 -16 -10z"/>
<path d="M9185 6419 c-4 -6 -5 -12 -2 -15 2 -3 7 2 10 11 7 17 1 20 -8 4z"/>
<path d="M8395 6130 c3 -5 8 -10 11 -10 2 0 4 5 4 10 0 6 -5 10 -11 10 -5 0
-7 -4 -4 -10z"/>
<path d="M9080 5935 c-8 -9 -8 -15 -2 -15 12 0 26 19 19 26 -2 2 -10 -2 -17
-11z"/>
<path d="M4234 7390 c-22 -5 -57 -15 -77 -24 l-37 -15 -1 -78 c-2 -173 2 -467
7 -475 13 -20 111 -3 194 34 111 51 158 120 169 251 4 45 6 96 4 112 -5 32
-44 120 -65 146 -35 42 -121 64 -194 49z"/>
<path d="M4050 7270 c0 -5 5 -10 10 -10 6 0 10 5 10 10 0 6 -4 10 -10 10 -5 0
-10 -4 -10 -10z"/>
<path d="M4425 6650 c3 -5 8 -10 11 -10 2 0 4 5 4 10 0 6 -5 10 -11 10 -5 0
-7 -4 -4 -10z"/>
<path d="M4505 6490 c3 -5 8 -10 11 -10 2 0 4 5 4 10 0 6 -5 10 -11 10 -5 0
-7 -4 -4 -10z"/>
<path d="M4586 6471 c-3 -5 1 -12 10 -15 22 -8 25 -4 9 11 -8 7 -16 9 -19 4z"/>
<path d="M4052 6345 c0 -16 2 -22 5 -12 2 9 2 23 0 30 -3 6 -5 -1 -5 -18z"/>
<path d="M3096 7158 c-2 -7 -9 -29 -16 -48 -6 -19 -16 -57 -20 -85 -5 -27 -21
-108 -35 -180 -14 -71 -37 -195 -49 -275 -13 -80 -25 -152 -27 -160 -3 -11 4
-14 26 -12 34 3 182 36 238 54 45 14 45 21 17 163 -11 55 -27 138 -36 185 -8
46 -17 87 -19 90 -2 3 -9 44 -15 90 -6 47 -17 107 -24 134 -13 49 -32 70 -40
44z"/>
<path d="M3370 6540 c0 -5 5 -10 11 -10 5 0 7 5 4 10 -3 6 -8 10 -11 10 -2 0
-4 -4 -4 -10z"/>
<path d="M3346 6525 c4 -8 8 -15 10 -15 2 0 4 7 4 15 0 8 -4 15 -10 15 -5 0
-7 -7 -4 -15z"/>
<path d="M3387 6203 c-4 -3 -7 -11 -7 -17 0 -6 5 -5 12 2 6 6 9 14 7 17 -3 3
-9 2 -12 -2z"/>
<path d="M8670 5933 c-8 -10 -33 -44 -54 -77 -21 -32 -47 -66 -57 -75 -11 -8
-19 -20 -19 -26 0 -5 -11 -23 -25 -39 -14 -16 -25 -33 -25 -37 0 -4 -6 -14
-13 -21 -52 -53 -126 -193 -166 -316 -85 -258 -55 -468 91 -627 61 -67 108
-95 208 -126 74 -22 200 -32 216 -16 13 13 -29 503 -57 655 -6 34 -16 62 -21
62 -21 0 -119 -105 -143 -153 -19 -40 -25 -66 -25 -120 0 -69 13 -107 53 -151
25 -29 21 -36 -15 -26 -59 17 -88 57 -123 169 -24 74 -17 190 15 253 33 68
130 171 182 193 23 11 46 23 49 28 12 17 9 111 -11 283 -11 98 -20 180 -20
181 0 10 -28 0 -40 -14z"/>
<path d="M8844 5258 c3 -29 13 -134 21 -233 33 -389 37 -425 51 -425 7 0 16 5
19 10 3 6 13 10 22 10 26 0 89 57 128 116 105 157 82 371 -52 498 -36 34 -126
75 -166 76 -28 0 -28 0 -23 -52z"/>
<path d="M8155 5240 c3 -5 8 -10 11 -10 2 0 4 5 4 10 0 6 -5 10 -11 10 -5 0
-7 -4 -4 -10z"/>
<path d="M8236 4877 c3 -10 9 -15 12 -12 3 3 0 11 -7 18 -10 9 -11 8 -5 -6z"/>
<path d="M8545 4140 c-3 -5 -1 -10 4 -10 6 0 11 5 11 10 0 6 -2 10 -4 10 -3 0
-8 -4 -11 -10z"/>
<path d="M8390 4130 c0 -5 5 -10 11 -10 5 0 7 5 4 10 -3 6 -8 10 -11 10 -2 0
-4 -4 -4 -10z"/>
<path d="M6570 5395 c-8 -9 -8 -15 -2 -15 12 0 26 19 19 26 -2 2 -10 -2 -17
-11z"/>
<path d="M6475 5329 c-4 -6 -5 -12 -2 -15 2 -3 7 2 10 11 7 17 1 20 -8 4z"/>
<path d="M6500 5325 c0 -8 4 -15 10 -15 5 0 7 7 4 15 -4 8 -8 15 -10 15 -2 0
-4 -7 -4 -15z"/>
<path d="M2405 4810 c-3 -5 -1 -10 4 -10 6 0 11 5 11 10 0 6 -2 10 -4 10 -3 0
-8 -4 -11 -10z"/>
<path d="M1948 4553 c7 -3 16 -2 19 1 4 3 -2 6 -13 5 -11 0 -14 -3 -6 -6z"/>
<path d="M1840 4499 c0 -5 5 -7 10 -4 6 3 10 8 10 11 0 2 -4 4 -10 4 -5 0 -10
-5 -10 -11z"/>
<path d="M5261 5105 c0 -5 6 -19 14 -29 8 -11 15 -15 15 -10 0 6 -7 19 -15 30
-8 10 -14 15 -14 9z"/>
<path d="M5220 4975 c-7 -9 -8 -15 -2 -15 5 0 12 7 16 15 3 8 4 15 2 15 -2 0
-9 -7 -16 -15z"/>
<path d="M5316 4972 c-3 -6 -1 -14 5 -17 14 -9 20 -2 10 14 -6 8 -11 9 -15 3z"/>
<path d="M5400 4945 c0 -8 4 -15 10 -15 5 0 7 7 4 15 -4 8 -8 15 -10 15 -2 0
-4 -7 -4 -15z"/>
<path d="M5240 4869 c0 -5 5 -7 10 -4 6 3 10 8 10 11 0 2 -4 4 -10 4 -5 0 -10
-5 -10 -11z"/>
<path d="M5326 4850 c7 -38 11 -46 20 -38 3 3 -2 21 -10 39 l-16 34 6 -35z"/>
<path d="M5535 4710 c3 -5 8 -10 11 -10 2 0 4 5 4 10 0 6 -5 10 -11 10 -5 0
-7 -4 -4 -10z"/>
<path d="M5230 4663 c0 -6 8 -17 18 -24 16 -13 16 -13 2 6 -8 11 -16 22 -17
24 -2 2 -3 0 -3 -6z"/>
<path d="M5180 4591 c0 -11 4 -22 9 -25 4 -3 6 6 3 19 -5 30 -12 33 -12 6z"/>
<path d="M5210 4585 c0 -8 4 -15 10 -15 5 0 7 7 4 15 -4 8 -8 15 -10 15 -2 0
-4 -7 -4 -15z"/>
<path d="M5265 4590 c3 -5 8 -10 11 -10 2 0 4 5 4 10 0 6 -5 10 -11 10 -5 0
-7 -4 -4 -10z"/>
<path d="M5275 4561 c-3 -5 -1 -12 5 -16 5 -3 10 1 10 9 0 18 -6 21 -15 7z"/>
<path d="M5233 4552 c-8 -5 -8 -12 2 -25 12 -17 13 -16 11 7 0 15 -1 26 -1 26
0 0 -5 -4 -12 -8z"/>
<path d="M5336 4547 c3 -10 9 -15 12 -12 3 3 0 11 -7 18 -10 9 -11 8 -5 -6z"/>
<path d="M5588 4553 c7 -3 16 -2 19 1 4 3 -2 6 -13 5 -11 0 -14 -3 -6 -6z"/>
<path d="M5425 4540 c3 -5 8 -10 11 -10 2 0 4 5 4 10 0 6 -5 10 -11 10 -5 0
-7 -4 -4 -10z"/>
<path d="M5631 4493 c18 -26 34 -42 37 -35 4 13 -46 82 -60 82 -5 0 6 -21 23
-47z"/>
<path d="M5192 4495 c0 -16 2 -22 5 -12 2 9 2 23 0 30 -3 6 -5 -1 -5 -18z"/>
<path d="M5222 4493 c6 -16 14 -48 18 -73 7 -44 7 -44 9 -9 1 33 -23 109 -34
109 -2 0 1 -12 7 -27z"/>
<path d="M5506 4511 c-3 -5 1 -11 9 -15 8 -3 15 -1 15 4 0 13 -18 22 -24 11z"/>
<path d="M5320 4465 c0 -3 13 -23 29 -45 24 -34 29 -37 34 -21 3 13 0 18 -8
15 -7 -3 -18 8 -25 25 -10 26 -30 43 -30 26z"/>
<path d="M5360 4458 c0 -9 5 -20 10 -23 13 -8 13 5 0 25 -8 13 -10 13 -10 -2z"/>
<path d="M5270 4454 c0 -6 7 -19 16 -30 14 -18 14 -18 3 6 -14 31 -19 36 -19
24z"/>
<path d="M5301 4444 c0 -11 3 -14 6 -6 3 7 2 16 -1 19 -3 4 -6 -2 -5 -13z"/>
<path d="M5480 4440 c6 -11 13 -20 16 -20 2 0 0 9 -6 20 -6 11 -13 20 -16 20
-2 0 0 -9 6 -20z"/>
<path d="M5530 4453 c0 -4 5 -15 10 -23 8 -13 10 -13 10 2 0 9 -4 20 -10 23
-5 3 -10 3 -10 -2z"/>
<path d="M5191 4365 c1 -43 2 -46 9 -22 5 16 5 38 0 50 -7 17 -9 10 -9 -28z"/>
<path d="M5317 4399 c7 -7 15 -10 18 -7 3 3 -2 9 -12 12 -14 6 -15 5 -6 -5z"/>
<path d="M5430 4406 c0 -4 9 -19 20 -33 11 -14 20 -21 20 -16 0 6 -9 20 -20
33 -11 13 -20 20 -20 16z"/>
<path d="M5271 4375 c1 -19 18 -51 18 -35 0 8 -4 22 -9 30 -5 8 -9 11 -9 5z"/>
<path d="M5520 4350 c6 -11 13 -20 16 -20 2 0 0 9 -6 20 -6 11 -13 20 -16 20
-2 0 0 -9 6 -20z"/>
<path d="M5420 4348 c0 -7 5 -20 10 -28 8 -12 10 -11 10 7 0 12 -4 25 -10 28
-5 3 -10 0 -10 -7z"/>
<path d="M5221 4334 c0 -11 3 -14 6 -6 3 7 2 16 -1 19 -3 4 -6 -2 -5 -13z"/>
<path d="M5298 4324 c-4 -4 -4 -12 -1 -18 8 -11 12 -28 15 -58 1 -10 6 -18 10
-18 11 0 9 29 -6 68 -6 18 -15 30 -18 26z"/>
<path d="M5390 4311 c0 -5 5 -13 10 -16 6 -3 10 -2 10 4 0 5 -4 13 -10 16 -5
3 -10 2 -10 -4z"/>
<path d="M5190 4299 c0 -5 5 -7 10 -4 6 3 10 8 10 11 0 2 -4 4 -10 4 -5 0 -10
-5 -10 -11z"/>
<path d="M5232 4305 c0 -5 6 -26 13 -45 7 -19 14 -28 14 -20 0 8 -6 29 -14 45
-7 17 -13 26 -13 20z"/>
<path d="M5356 4277 c3 -10 9 -15 12 -12 3 3 0 11 -7 18 -10 9 -11 8 -5 -6z"/>
<path d="M5206 4244 c-4 -10 -1 -14 6 -12 15 5 23 28 10 28 -5 0 -13 -7 -16
-16z"/>
<path d="M5275 4250 c-3 -5 -2 -10 4 -10 5 0 13 5 16 10 3 6 2 10 -4 10 -5 0
-13 -4 -16 -10z"/>
<path d="M5190 4213 c0 -4 5 -15 10 -23 8 -13 10 -13 10 2 0 9 -4 20 -10 23
-5 3 -10 3 -10 -2z"/>
<path d="M4937 4983 c-4 -3 -7 -11 -7 -17 0 -6 5 -5 12 2 6 6 9 14 7 17 -3 3
-9 2 -12 -2z"/>
<path d="M4905 4949 c-4 -6 -5 -12 -2 -15 2 -3 7 2 10 11 7 17 1 20 -8 4z"/>
<path d="M4915 4914 c-29 -68 -35 -84 -29 -84 8 0 56 112 50 117 -3 3 -12 -12
-21 -33z"/>
<path d="M5027 4923 c-4 -3 -6 -25 -6 -47 l2 -41 7 45 c8 48 7 54 -3 43z"/>
<path d="M4793 4843 c-10 -34 -10 -36 3 -19 12 17 20 56 11 56 -1 0 -7 -17
-14 -37z"/>
<path d="M4840 4815 c-7 -9 -8 -15 -2 -15 5 0 12 7 16 15 3 8 4 15 2 15 -2 0
-9 -7 -16 -15z"/>
<path d="M4971 4784 c0 -11 3 -14 6 -6 3 7 2 16 -1 19 -3 4 -6 -2 -5 -13z"/>
<path d="M4820 4735 c0 -8 2 -15 4 -15 2 0 6 7 10 15 3 8 1 15 -4 15 -6 0 -10
-7 -10 -15z"/>
<path d="M4986 4733 c-6 -14 -5 -15 5 -6 7 7 10 15 7 18 -3 3 -9 -2 -12 -12z"/>
<path d="M4937 4651 c-4 -17 -3 -21 5 -13 5 5 8 16 6 23 -3 8 -7 3 -11 -10z"/>
<path d="M4990 4659 c0 -5 5 -7 10 -4 6 3 10 8 10 11 0 2 -4 4 -10 4 -5 0 -10
-5 -10 -11z"/>
<path d="M4686 4613 c-6 -14 -5 -15 5 -6 7 7 10 15 7 18 -3 3 -9 -2 -12 -12z"/>
<path d="M4970 4612 c0 -6 -7 -9 -16 -5 -14 5 -14 3 -3 -15 l14 -22 8 22 c4
11 5 23 2 26 -3 3 -5 0 -5 -6z"/>
<path d="M4710 4538 c-11 -12 -20 -27 -20 -32 0 -6 6 -4 13 4 7 8 20 23 30 33
10 9 14 17 8 17 -6 0 -19 -10 -31 -22z"/>
<path d="M4946 4543 c-6 -14 -5 -15 5 -6 7 7 10 15 7 18 -3 3 -9 -2 -12 -12z"/>
<path d="M4825 4520 c-3 -5 -1 -10 4 -10 6 0 11 5 11 10 0 6 -2 10 -4 10 -3 0
-8 -4 -11 -10z"/>
<path d="M4900 4510 c0 -5 5 -10 11 -10 5 0 7 5 4 10 -3 6 -8 10 -11 10 -2 0
-4 -4 -4 -10z"/>
<path d="M4757 4496 c-9 -7 -17 -19 -17 -27 0 -9 8 -6 22 9 25 24 22 37 -5 18z"/>
<path d="M4813 4473 c-10 -16 -24 -28 -30 -26 -7 3 -13 0 -13 -7 0 -6 5 -8 10
-5 18 11 10 -11 -10 -30 -11 -10 -20 -24 -20 -30 0 -7 -9 -24 -21 -39 -11 -14
-17 -26 -12 -26 4 0 21 20 36 45 16 25 33 43 37 40 5 -3 12 0 16 6 4 8 3 9 -4
5 -18 -11 -14 0 14 45 14 23 23 43 20 46 -3 3 -13 -8 -23 -24z"/>
<path d="M4685 4479 c-4 -6 -5 -12 -2 -15 2 -3 7 2 10 11 7 17 1 20 -8 4z"/>
<path d="M4710 4453 c0 -10 -16 -42 -35 -71 -20 -28 -31 -52 -26 -52 5 0 22
22 38 50 15 27 31 50 36 50 11 0 9 28 -3 35 -5 3 -10 -2 -10 -12z"/>
<path d="M4580 4450 c-8 -5 -12 -12 -9 -15 4 -3 12 1 19 10 14 17 11 19 -10 5z"/>
<path d="M4650 4450 c-8 -5 -12 -12 -9 -15 4 -3 12 1 19 10 14 17 11 19 -10 5z"/>
<path d="M4921 4444 c0 -11 3 -14 6 -6 3 7 2 16 -1 19 -3 4 -6 -2 -5 -13z"/>
<path d="M4599 4433 c-13 -16 -12 -17 4 -4 16 13 21 21 13 21 -2 0 -10 -8 -17
-17z"/>
<path d="M4885 4439 c-4 -6 -5 -12 -2 -15 2 -3 7 2 10 11 7 17 1 20 -8 4z"/>
<path d="M4979 4423 c-6 -16 -16 -35 -24 -43 -7 -8 -16 -26 -19 -40 -6 -23 -6
-23 5 -5 7 11 15 22 19 25 9 7 41 90 35 90 -3 0 -10 -12 -16 -27z"/>
<path d="M4840 4425 c-7 -9 -11 -17 -9 -20 3 -2 10 5 17 15 14 24 10 26 -8 5z"/>
<path d="M4649 4411 c-13 -11 -22 -22 -19 -24 3 -3 16 5 29 19 28 29 22 31
-10 5z"/>
<path d="M5018 4379 c-25 -43 -22 -61 3 -20 11 18 19 37 17 42 -2 5 -11 -5
-20 -22z"/>
<path d="M4930 4389 c0 -5 5 -7 10 -4 6 3 10 8 10 11 0 2 -4 4 -10 4 -5 0 -10
-5 -10 -11z"/>
<path d="M4555 4380 c-3 -5 -1 -10 4 -10 6 0 11 5 11 10 0 6 -2 10 -4 10 -3 0
-8 -4 -11 -10z"/>
<path d="M4810 4379 c0 -5 5 -7 10 -4 6 3 10 8 10 11 0 2 -4 4 -10 4 -5 0 -10
-5 -10 -11z"/>
<path d="M4881 4363 c-10 -26 -10 -27 4 -9 8 11 15 23 15 28 0 15 -7 8 -19
-19z"/>
<path d="M4610 4355 c0 -8 2 -15 4 -15 2 0 6 7 10 15 3 8 1 15 -4 15 -6 0 -10
-7 -10 -15z"/>
<path d="M4713 4358 c-23 -30 -24 -41 -2 -21 12 12 20 25 17 28 -3 3 -10 0
-15 -7z"/>
<path d="M4780 4332 c-21 -42 -21 -42 -16 -42 6 0 37 62 33 67 -2 1 -10 -9
-17 -25z"/>
<path d="M4810 4309 c-7 -11 -10 -23 -7 -25 2 -2 9 7 15 21 14 30 7 33 -8 4z"/>
<path d="M4954 4305 c-4 -8 -10 -13 -14 -10 -5 3 -6 -4 -3 -16 6 -21 9 -19 34
24 7 11 6 17 -1 17 -6 0 -13 -7 -16 -15z"/>
<path d="M4906 4293 c-6 -14 -5 -15 5 -6 7 7 10 15 7 18 -3 3 -9 -2 -12 -12z"/>
<path d="M5020 4240 c0 -11 2 -20 4 -20 2 0 6 9 9 20 3 11 1 20 -4 20 -5 0 -9
-9 -9 -20z"/>
<path d="M6656 4563 c-6 -14 -5 -15 5 -6 7 7 10 15 7 18 -3 3 -9 -2 -12 -12z"/>
<path d="M6446 4375 c-18 -13 -18 -14 3 -12 11 1 21 7 21 14 0 16 0 16 -24 -2z"/>
<path d="M6386 4335 c-11 -8 -15 -15 -10 -15 6 0 19 7 30 15 10 8 15 14 9 14
-5 0 -19 -6 -29 -14z"/>
<path d="M6218 4283 c6 -2 18 -2 25 0 6 3 1 5 -13 5 -14 0 -19 -2 -12 -5z"/>
<path d="M6389 4243 c-13 -16 -12 -17 4 -4 9 7 17 15 17 17 0 8 -8 3 -21 -13z"/>
<path d="M6425 4240 c-3 -5 -1 -10 4 -10 6 0 11 5 11 10 0 6 -2 10 -4 10 -3 0
-8 -4 -11 -10z"/>
<path d="M6320 4200 c-9 -6 -10 -10 -3 -10 6 0 15 5 18 10 8 12 4 12 -15 0z"/>
<path d="M6208 4179 c-10 -10 -14 -19 -10 -19 5 0 17 9 27 20 10 11 14 20 9
19 -5 0 -17 -9 -26 -20z"/>
<path d="M6245 4164 c-16 -9 -47 -25 -68 -36 -22 -10 -37 -22 -34 -24 6 -6 92
37 122 60 26 20 18 20 -20 0z"/>
<path d="M6348 4153 c7 -3 16 -2 19 1 4 3 -2 6 -13 5 -11 0 -14 -3 -6 -6z"/>
<path d="M5525 4130 c-25 -11 1 -11 35 0 20 6 21 8 5 8 -11 0 -29 -3 -40 -8z"/>
<path d="M5655 4130 c-3 -6 1 -7 9 -4 18 7 21 14 7 14 -6 0 -13 -4 -16 -10z"/>
<path d="M5738 4096 c-21 -11 -38 -24 -38 -28 0 -10 38 3 51 18 6 8 18 14 25
14 8 0 14 5 14 10 0 14 -9 11 -52 -14z"/>
<path d="M5396 4055 c-25 -19 -17 -19 25 0 24 10 28 14 14 14 -11 0 -29 -6
-39 -14z"/>
<path d="M5627 4040 c-22 -11 -59 -20 -83 -21 -24 -2 -44 -6 -44 -11 0 -4 -7
-8 -15 -8 -8 0 -15 -5 -15 -11 0 -6 7 -8 16 -5 9 3 34 9 57 13 42 6 164 62
137 62 -8 0 -32 -8 -53 -19z"/>
<path d="M6350 4045 c0 -8 2 -15 4 -15 2 0 6 7 10 15 3 8 1 15 -4 15 -6 0 -10
-7 -10 -15z"/>
<path d="M5758 4043 c7 -3 16 -2 19 1 4 3 -2 6 -13 5 -11 0 -14 -3 -6 -6z"/>
<path d="M6065 4030 c-16 -7 -17 -9 -3 -9 9 -1 20 4 23 9 7 11 7 11 -20 0z"/>
<path d="M5465 4020 c-3 -5 -1 -10 4 -10 6 0 11 5 11 10 0 6 -2 10 -4 10 -3 0
-8 -4 -11 -10z"/>
<path d="M5693 4014 c-18 -8 -33 -16 -33 -18 0 -8 63 13 74 24 14 14 -2 11
-41 -6z"/>
<path d="M6200 4019 c0 -5 5 -7 10 -4 6 3 10 8 10 11 0 2 -4 4 -10 4 -5 0 -10
-5 -10 -11z"/>
<path d="M6015 4010 c-3 -6 1 -7 9 -4 18 7 21 14 7 14 -6 0 -13 -4 -16 -10z"/>
<path d="M6090 4010 c-8 -5 -10 -10 -5 -10 6 0 17 5 25 10 8 5 11 10 5 10 -5
0 -17 -5 -25 -10z"/>
<path d="M5980 4000 c-9 -6 -10 -10 -3 -10 6 0 15 5 18 10 8 12 4 12 -15 0z"/>
<path d="M5923 3986 c-33 -16 -28 -27 7 -15 17 6 30 15 30 20 0 11 -8 10 -37
-5z"/>
<path d="M6321 3969 c-12 -13 -21 -27 -21 -32 0 -6 11 2 26 18 14 15 23 29 21
32 -3 2 -14 -6 -26 -18z"/>
<path d="M5923 3957 c-18 -6 -33 -15 -33 -19 0 -13 18 -9 52 12 36 22 31 23
-19 7z"/>
<path d="M5810 3940 c0 -5 7 -7 15 -4 8 4 15 8 15 10 0 2 -7 4 -15 4 -8 0 -15
-4 -15 -10z"/>
<path d="M6277 3944 c-16 -16 -236 -86 -247 -79 -6 4 -90 -33 -90 -40 0 -2 19
2 43 9 23 7 76 21 117 31 41 10 85 24 97 33 13 8 29 12 37 9 16 -6 65 27 55
37 -3 3 -9 3 -12 0z"/>
<path d="M5513 3923 c9 -2 23 -2 30 0 6 3 -1 5 -18 5 -16 0 -22 -2 -12 -5z"/>
<path d="M5845 3880 c-3 -5 -1 -10 4 -10 6 0 11 5 11 10 0 6 -2 10 -4 10 -3 0
-8 -4 -11 -10z"/>
<path d="M6270 3865 c-7 -9 -8 -15 -2 -15 5 0 12 7 16 15 3 8 4 15 2 15 -2 0
-9 -7 -16 -15z"/>
<path d="M6183 3854 c-18 -8 -33 -16 -33 -19 0 -7 60 16 66 26 6 11 7 11 -33
-7z"/>
<path d="M6195 3816 c-11 -7 -33 -21 -48 -30 -16 -10 -26 -20 -22 -24 3 -4 9
-2 13 3 4 6 24 18 45 27 20 10 37 22 37 28 0 12 0 12 -25 -4z"/>
<path d="M6030 3810 c-8 -5 -10 -10 -5 -10 6 0 17 5 25 10 8 5 11 10 5 10 -5
0 -17 -5 -25 -10z"/>
<path d="M5815 3780 c-3 -5 -1 -10 4 -10 6 0 11 5 11 10 0 6 -2 10 -4 10 -3 0
-8 -4 -11 -10z"/>
<path d="M5943 3773 c-13 -2 -23 -10 -23 -18 0 -11 6 -10 33 2 49 24 47 27
-10 16z"/>
<path d="M6024 3765 c-10 -8 -14 -14 -9 -14 6 0 19 6 29 14 11 8 15 15 10 15
-6 0 -19 -7 -30 -15z"/>
<path d="M5880 3740 c0 -5 5 -10 10 -10 6 0 10 5 10 10 0 6 -4 10 -10 10 -5 0
-10 -4 -10 -10z"/>
<path d="M6010 3729 c-26 -15 -29 -18 -10 -13 40 11 70 23 70 29 0 10 -26 4
-60 -16z"/>
<path d="M6160 3740 c0 -5 7 -7 15 -4 8 4 15 8 15 10 0 2 -7 4 -15 4 -8 0 -15
-4 -15 -10z"/>
<path d="M6130 3720 c-9 -6 -10 -10 -3 -10 6 0 15 5 18 10 8 12 4 12 -15 0z"/>
<path d="M5945 3700 c-16 -7 -17 -9 -3 -9 9 -1 20 4 23 9 7 11 7 11 -20 0z"/>
<path d="M5995 3690 c-3 -5 -1 -10 4 -10 6 0 11 5 11 10 0 6 -2 10 -4 10 -3 0
-8 -4 -11 -10z"/>
<path d="M6064 3680 c-19 -7 -42 -30 -31 -30 2 0 21 9 43 20 38 19 29 27 -12
10z"/>
<path d="M6178 3673 c7 -3 16 -2 19 1 4 3 -2 6 -13 5 -11 0 -14 -3 -6 -6z"/>
<path d="M6076 3651 c-4 -5 3 -7 14 -4 23 6 26 13 6 13 -8 0 -17 -4 -20 -9z"/>
<path d="M6160 3650 c0 -5 5 -10 11 -10 5 0 7 5 4 10 -3 6 -8 10 -11 10 -2 0
-4 -4 -4 -10z"/>
<path d="M6160 3590 c-9 -6 -10 -10 -3 -10 6 0 15 5 18 10 8 12 4 12 -15 0z"/>
<path d="M5935 4560 c-18 -8 -18 -9 5 -9 14 0 32 4 40 9 12 8 12 10 -5 9 -11
0 -29 -4 -40 -9z"/>
<path d="M6048 4553 c7 -3 16 -2 19 1 4 3 -2 6 -13 5 -11 0 -14 -3 -6 -6z"/>
<path d="M5982 4539 c-13 -5 -28 -7 -33 -3 -5 3 -9 0 -9 -7 0 -7 9 -9 28 -4
15 4 42 6 61 6 39 -1 39 3 1 12 -14 3 -36 1 -48 -4z"/>
<path d="M3700 4420 c0 -5 7 -10 16 -10 8 0 12 5 9 10 -3 6 -10 10 -16 10 -5
0 -9 -4 -9 -10z"/>
<path d="M3740 4401 c0 -5 30 -19 68 -32 37 -12 74 -24 82 -27 10 -3 12 -2 5
5 -5 6 -35 18 -65 28 -30 10 -59 21 -64 26 -13 12 -26 11 -26 0z"/>
<path d="M3675 4280 c3 -5 8 -10 11 -10 2 0 4 5 4 10 0 6 -5 10 -11 10 -5 0
-7 -4 -4 -10z"/>
<path d="M3928 4273 c7 -3 16 -2 19 1 4 3 -2 6 -13 5 -11 0 -14 -3 -6 -6z"/>
<path d="M4238 4273 c7 -3 16 -2 19 1 4 3 -2 6 -13 5 -11 0 -14 -3 -6 -6z"/>
<path d="M3735 4250 c3 -5 11 -10 16 -10 6 0 7 5 4 10 -3 6 -11 10 -16 10 -6
0 -7 -4 -4 -10z"/>
<path d="M3783 4246 c0 -9 13 -24 29 -32 16 -8 28 -10 28 -4 0 5 -6 10 -14 10
-7 0 -20 10 -28 22 -12 18 -15 19 -15 4z"/>
<path d="M3760 4130 c0 -5 5 -10 11 -10 5 0 7 5 4 10 -3 6 -8 10 -11 10 -2 0
-4 -4 -4 -10z"/>
<path d="M4200 4116 c0 -2 9 -6 20 -9 11 -3 18 -1 14 4 -5 9 -34 13 -34 5z"/>
<path d="M4290 4100 c8 -5 20 -10 25 -10 6 0 3 5 -5 10 -8 5 -19 10 -25 10 -5
0 -3 -5 5 -10z"/>
<path d="M4675 4091 c28 -11 114 -22 95 -12 -8 5 -37 11 -65 14 -29 3 -42 2
-30 -2z"/>
<path d="M3850 4070 c0 -4 10 -10 23 -14 13 -3 61 -31 108 -62 112 -75 134
-82 36 -11 -43 32 -82 57 -88 57 -5 0 -9 4 -9 8 0 5 -16 13 -35 19 -19 6 -35
8 -35 3z"/>
<path d="M3808 4063 c6 -2 18 -2 25 0 6 3 1 5 -13 5 -14 0 -19 -2 -12 -5z"/>
<path d="M4470 4061 c0 -8 41 -23 47 -17 2 1 -8 8 -22 14 -14 6 -25 8 -25 3z"/>
<path d="M4145 4040 c3 -5 11 -10 16 -10 6 0 7 5 4 10 -3 6 -11 10 -16 10 -6
0 -7 -4 -4 -10z"/>
<path d="M4575 4040 c-19 -8 -19 -9 2 -9 12 -1 25 4 28 9 7 12 -2 12 -30 0z"/>
<path d="M4630 4030 c8 -5 22 -9 30 -9 10 0 8 3 -5 9 -27 12 -43 12 -25 0z"/>
<path d="M4060 4026 c0 -2 7 -7 16 -10 8 -3 12 -2 9 4 -6 10 -25 14 -25 6z"/>
<path d="M4710 4027 c0 -3 15 -10 32 -16 18 -6 28 -7 23 -2 -12 10 -55 25 -55
18z"/>
<path d="M4226 4002 c-3 -5 1 -9 9 -9 8 0 12 4 9 9 -3 4 -7 8 -9 8 -2 0 -6 -4
-9 -8z"/>
<path d="M4660 3996 c0 -2 7 -6 15 -10 8 -3 15 -1 15 4 0 6 -7 10 -15 10 -8 0
-15 -2 -15 -4z"/>
<path d="M4260 3985 c0 -14 62 -32 115 -34 33 -1 69 -5 80 -8 17 -5 18 -3 8 9
-8 8 -32 15 -59 16 -25 1 -64 7 -87 12 -48 11 -57 12 -57 5z"/>
<path d="M3910 3961 c0 -6 4 -13 10 -16 6 -3 7 1 4 9 -7 18 -14 21 -14 7z"/>
<path d="M4200 3920 c21 -15 88 -50 96 -50 13 0 -64 48 -87 55 -19 5 -21 4 -9
-5z"/>
<path d="M4270 3840 c8 -5 20 -10 25 -10 6 0 3 5 -5 10 -8 5 -19 10 -25 10 -5
0 -3 -5 5 -10z"/>
<path d="M4628 3843 c7 -3 16 -2 19 1 4 3 -2 6 -13 5 -11 0 -14 -3 -6 -6z"/>
<path d="M4013 3799 c9 -5 17 -17 17 -24 0 -8 7 -15 16 -15 14 0 14 1 0 16 -9
8 -16 20 -16 25 0 5 -8 9 -17 9 -17 -1 -17 -1 0 -11z"/>
<path d="M4084 3796 c23 -18 36 -20 36 -6 0 6 -4 10 -9 10 -5 0 -18 3 -28 6
-16 5 -16 4 1 -10z"/>
<path d="M4145 3780 c11 -5 27 -9 35 -9 9 0 8 4 -5 9 -11 5 -27 9 -35 9 -9 0
-8 -4 5 -9z"/>
<path d="M4300 3776 c0 -2 7 -7 16 -10 8 -3 12 -2 9 4 -6 10 -25 14 -25 6z"/>
<path d="M4211 3767 c2 -1 13 -9 24 -17 19 -14 19 -14 6 3 -7 9 -18 17 -24 17
-6 0 -8 -1 -6 -3z"/>
<path d="M4340 3758 c0 -6 3 -8 7 -5 3 4 13 1 22 -6 14 -11 14 -10 2 6 -15 20
-31 22 -31 5z"/>
<path d="M4060 3739 c0 -6 6 -9 13 -8 11 2 25 -2 75 -22 13 -5 22 -5 22 1 0 5
-19 15 -42 21 -61 18 -68 18 -68 8z"/>
<path d="M4488 3733 c7 -3 16 -2 19 1 4 3 -2 6 -13 5 -11 0 -14 -3 -6 -6z"/>
<path d="M4060 3700 c0 -5 5 -10 11 -10 5 0 7 5 4 10 -3 6 -8 10 -11 10 -2 0
-4 -4 -4 -10z"/>
<path d="M4225 3695 c22 -7 44 -10 50 -7 12 7 -30 20 -65 20 -19 0 -15 -3 15
-13z"/>
<path d="M4030 3681 c0 -6 4 -13 10 -16 6 -3 7 1 4 9 -7 18 -14 21 -14 7z"/>
<path d="M4095 3680 c3 -5 11 -10 16 -10 6 0 7 5 4 10 -3 6 -11 10 -16 10 -6
0 -7 -4 -4 -10z"/>
<path d="M4298 3683 c7 -3 16 -2 19 1 4 3 -2 6 -13 5 -11 0 -14 -3 -6 -6z"/>
<path d="M4160 3656 c0 -11 90 -46 116 -45 22 0 12 6 -41 24 -79 28 -75 26
-75 21z"/>
<path d="M4040 3640 c8 -6 24 -15 35 -21 16 -8 15 -6 -4 10 -13 12 -28 21 -35
21 -6 0 -4 -5 4 -10z"/>
<path d="M4126 3595 c4 -8 16 -15 28 -15 12 0 27 -5 33 -11 7 -7 13 -7 17 0 4
6 -8 13 -29 17 -19 3 -35 10 -35 15 0 5 -4 9 -10 9 -5 0 -7 -7 -4 -15z"/>
<path d="M4075 3560 c3 -5 8 -10 11 -10 2 0 4 5 4 10 0 6 -5 10 -11 10 -5 0
-7 -4 -4 -10z"/>
<path d="M4128 3533 c6 -2 18 -2 25 0 6 3 1 5 -13 5 -14 0 -19 -2 -12 -5z"/>
<path d="M4136 4505 c4 -8 8 -15 10 -15 2 0 4 7 4 15 0 8 -4 15 -10 15 -5 0
-7 -7 -4 -15z"/>
<path d="M4244 4476 c20 -11 33 -13 40 -6 7 7 5 10 -4 10 -8 0 -26 3 -40 6
-23 5 -23 5 4 -10z"/>
<path d="M5180 3940 c0 -5 5 -10 10 -10 6 0 10 5 10 10 0 6 -4 10 -10 10 -5 0
-10 -4 -10 -10z"/>
<path d="M5210 3909 c0 -5 5 -7 10 -4 6 3 10 8 10 11 0 2 -4 4 -10 4 -5 0 -10
-5 -10 -11z"/>
<path d="M5240 3850 c8 -5 20 -10 25 -10 6 0 3 5 -5 10 -8 5 -19 10 -25 10 -5
0 -3 -5 5 -10z"/>
<path d="M5105 3830 c-3 -5 -1 -10 4 -10 6 0 11 5 11 10 0 6 -2 10 -4 10 -3 0
-8 -4 -11 -10z"/>
<path d="M5020 3826 c0 -2 7 -6 15 -10 8 -3 15 -1 15 4 0 6 -7 10 -15 10 -8 0
-15 -2 -15 -4z"/>
<path d="M5140 3820 c0 -5 15 -10 33 -11 17 0 42 -2 55 -3 37 -4 24 11 -15 18
-54 8 -73 7 -73 -4z"/>
<path d="M5265 3810 c-2 -4 1 -7 8 -7 7 0 23 -3 36 -7 15 -5 21 -4 17 2 -7 12
-55 22 -61 12z"/>
<path d="M5388 3813 c7 -3 16 -2 19 1 4 3 -2 6 -13 5 -11 0 -14 -3 -6 -6z"/>
<path d="M5160 3786 c0 -2 9 -6 20 -9 11 -3 20 -1 20 4 0 5 -9 9 -20 9 -11 0
-20 -2 -20 -4z"/>
<path d="M5220 3770 c0 -5 10 -10 23 -10 18 0 19 2 7 10 -19 13 -30 13 -30 0z"/>
<path d="M4815 3758 c9 -5 39 -11 68 -13 29 -2 61 -6 72 -9 11 -4 7 0 -10 8
-34 15 -157 29 -130 14z"/>
<path d="M5298 3763 c7 -3 16 -2 19 1 4 3 -2 6 -13 5 -11 0 -14 -3 -6 -6z"/>
<path d="M5390 3739 c0 -5 5 -7 10 -4 6 3 10 8 10 11 0 2 -4 4 -10 4 -5 0 -10
-5 -10 -11z"/>
<path d="M5510 3740 c-9 -6 -10 -10 -3 -10 6 0 15 5 18 10 8 12 4 12 -15 0z"/>
<path d="M5015 3720 c3 -5 13 -10 21 -10 8 0 12 5 9 10 -3 6 -13 10 -21 10 -8
0 -12 -4 -9 -10z"/>
<path d="M5470 3720 c-8 -6 -13 -10 -10 -11 44 -7 53 -8 45 -1 -5 4 -12 10
-15 14 -3 4 -12 3 -20 -2z"/>
<path d="M5070 3709 c0 -5 5 -7 10 -4 6 3 10 8 10 11 0 2 -4 4 -10 4 -5 0 -10
-5 -10 -11z"/>
<path d="M5145 3712 c-12 -12 -4 -22 18 -22 13 0 28 -5 33 -10 6 -6 49 -15 95
-20 46 -5 99 -14 117 -21 18 -6 36 -8 40 -5 3 4 -4 9 -17 13 -17 4 -19 8 -9
15 8 5 3 6 -14 2 -16 -3 -36 -3 -45 1 -10 4 -44 9 -77 11 -32 2 -76 12 -97 22
-21 11 -41 17 -44 14z"/>
<path d="M5568 3713 c7 -3 16 -2 19 1 4 3 -2 6 -13 5 -11 0 -14 -3 -6 -6z"/>
<path d="M4770 3701 c0 -5 9 -7 20 -4 11 3 20 7 20 9 0 2 -9 4 -20 4 -11 0
-20 -4 -20 -9z"/>
<path d="M4841 3706 c12 -10 60 -16 54 -6 -3 5 -18 10 -32 10 -15 0 -24 -2
-22 -4z"/>
<path d="M5540 3660 c0 -6 11 -8 28 -4 39 10 40 14 4 14 -18 0 -32 -5 -32 -10z"/>
<path d="M4630 3651 c24 -14 66 -25 55 -13 -5 5 -23 12 -40 16 -20 4 -25 3
-15 -3z"/>
<path d="M4723 3653 c9 -2 23 -2 30 0 6 3 -1 5 -18 5 -16 0 -22 -2 -12 -5z"/>
<path d="M4797 3646 c-2 -6 -25 -11 -50 -11 -26 0 -47 -4 -47 -9 0 -5 21 -5
48 -2 65 10 165 7 173 -5 3 -6 11 -4 18 5 9 11 9 16 0 22 -8 4 -9 3 -5 -4 8
-14 -6 -16 -19 -3 -15 14 -114 20 -118 7z"/>
<path d="M5033 3653 c7 -12 86 -29 222 -47 38 -6 39 -5 10 5 -16 6 -66 17
-110 24 -44 8 -91 17 -104 21 -15 5 -22 3 -18 -3z"/>
<path d="M5488 3628 c5 -5 16 -8 23 -6 8 3 3 7 -10 11 -17 4 -21 3 -13 -5z"/>
<path d="M5570 3630 l-45 -7 58 -1 c31 -1 66 -6 77 -12 11 -5 29 -14 40 -20
11 -5 30 -10 42 -9 17 0 12 4 -17 16 -22 8 -54 21 -72 29 -17 8 -33 13 -35 12
-1 0 -23 -4 -48 -8z"/>
<path d="M4648 3613 c6 -2 18 -2 25 0 6 3 1 5 -13 5 -14 0 -19 -2 -12 -5z"/>
<path d="M4570 3596 c6 -6 18 -5 32 2 22 10 21 10 -9 9 -19 -1 -28 -6 -23 -11z"/>
<path d="M5592 3587 c13 -14 24 -15 55 -8 l38 9 -35 0 c-19 0 -44 3 -55 8 -19
7 -19 7 -3 -9z"/>
<path d="M4528 3582 c-38 -8 -15 -18 30 -14 26 3 70 5 97 5 45 0 47 1 22 9
-19 7 -46 7 -78 1 -26 -6 -50 -7 -51 -4 -2 4 -11 5 -20 3z"/>
<path d="M5770 3580 c0 -5 5 -10 10 -10 6 0 10 5 10 10 0 6 -4 10 -10 10 -5 0
-10 -4 -10 -10z"/>
<path d="M4475 3570 c-3 -5 -1 -10 4 -10 6 0 11 5 11 10 0 6 -2 10 -4 10 -3 0
-8 -4 -11 -10z"/>
<path d="M5830 3550 c-12 -8 -11 -10 7 -10 12 0 25 5 28 10 8 13 -15 13 -35 0z"/>
<path d="M4570 3534 c0 -8 5 -12 10 -9 6 3 10 10 10 16 0 5 -4 9 -10 9 -5 0
-10 -7 -10 -16z"/>
<path d="M5435 3530 c63 -21 110 -26 101 -11 -5 8 -22 11 -126 26 -23 3 -15
-2 25 -15z"/>
<path d="M5478 3543 c6 -2 18 -2 25 0 6 3 1 5 -13 5 -14 0 -19 -2 -12 -5z"/>
<path d="M5648 3543 c6 -2 18 -2 25 0 6 3 1 5 -13 5 -14 0 -19 -2 -12 -5z"/>
<path d="M5575 3526 c23 -8 73 -17 113 -21 40 -4 75 -11 78 -16 3 -5 10 -9 17
-9 6 0 3 6 -8 14 -19 13 -114 33 -200 41 l-40 4 40 -13z"/>
<path d="M5760 3531 c8 -6 28 -11 44 -11 39 0 31 6 -19 14 -29 5 -36 4 -25 -3z"/>
<path d="M5848 3523 c7 -3 16 -2 19 1 4 3 -2 6 -13 5 -11 0 -14 -3 -6 -6z"/>
<path d="M4418 3503 c7 -3 16 -2 19 1 4 3 -2 6 -13 5 -11 0 -14 -3 -6 -6z"/>
<path d="M5590 3491 c13 -10 99 -16 89 -7 -2 2 -26 6 -54 10 -36 5 -46 4 -35
-3z"/>
<path d="M5842 3495 c10 -11 68 -23 68 -15 0 4 -10 10 -22 14 -29 7 -53 8 -46
1z"/>
<path d="M5808 3473 c6 -2 18 -2 25 0 6 3 1 5 -13 5 -14 0 -19 -2 -12 -5z"/>
<path d="M5926 3465 c5 -11 -2 -13 -33 -10 -31 4 -33 3 -13 -4 41 -15 57 -12
63 9 3 13 0 20 -9 20 -8 0 -11 -6 -8 -15z"/>
<path d="M5720 3461 c0 -5 9 -7 20 -4 11 3 20 7 20 9 0 2 -9 4 -20 4 -11 0
-20 -4 -20 -9z"/>
<path d="M5956 3453 c-6 -14 -5 -15 5 -6 7 7 10 15 7 18 -3 3 -9 -2 -12 -12z"/>
<path d="M5818 3433 c6 -2 18 -2 25 0 6 3 1 5 -13 5 -14 0 -19 -2 -12 -5z"/>
<path d="M5868 3423 c6 -2 18 -2 25 0 6 3 1 5 -13 5 -14 0 -19 -2 -12 -5z"/>
<path d="M7010 3628 c-25 -5 -54 -13 -65 -18 -11 -5 -31 -12 -45 -16 -84 -23
-217 -101 -302 -175 -34 -30 -73 -63 -88 -74 -15 -11 -60 -45 -101 -76 -107
-81 -205 -142 -279 -173 -36 -15 -73 -32 -83 -37 -29 -16 -187 -32 -242 -25
-76 9 -211 55 -290 99 -69 37 -147 71 -250 109 -85 31 -97 33 -215 32 -98 -1
-138 -6 -185 -22 -96 -33 -232 -90 -350 -147 -201 -97 -291 -132 -380 -149
-16 -4 -41 -9 -55 -11 -40 -8 -150 -23 -220 -30 -64 -6 -91 -14 -54 -16 10 0
33 -2 49 -4 131 -15 326 5 448 46 34 12 130 54 212 94 83 39 179 85 215 101
36 15 67 31 70 35 3 4 41 18 85 30 90 25 240 30 313 10 47 -13 222 -96 342
-162 117 -64 171 -80 296 -86 105 -5 116 -4 205 26 52 17 115 44 140 59 147
86 212 127 216 139 3 7 11 13 17 13 7 0 23 11 36 25 13 14 28 25 33 25 5 0 41
29 81 64 108 97 284 205 388 240 65 22 204 56 227 56 12 0 21 6 21 15 0 12
-14 15 -72 14 -40 -1 -93 -5 -118 -11z"/>
<path d="M7151 3536 c-57 -20 -76 -56 -76 -139 0 -60 5 -82 29 -130 48 -95
165 -193 281 -236 71 -27 219 -43 275 -30 127 29 285 94 390 161 73 47 205
112 255 125 54 15 155 33 191 34 26 1 25 2 -11 11 -65 16 -220 2 -274 -24 -25
-13 -48 -23 -51 -23 -3 0 -31 -13 -64 -28 -32 -15 -61 -27 -65 -27 -4 0 -30
-15 -58 -34 -148 -97 -267 -139 -398 -139 -177 -1 -344 93 -411 229 -23 48
-26 63 -22 128 4 63 9 78 31 100 40 40 37 43 -22 22z"/>
<path d="M6985 3502 c-130 -60 -163 -77 -221 -117 -36 -24 -112 -81 -169 -126
-138 -109 -197 -149 -292 -199 -43 -23 -82 -46 -86 -50 -10 -9 61 -36 82 -31
30 6 173 103 297 201 201 160 318 240 350 240 17 0 17 -5 3 -33 -16 -29 -30
-38 -53 -31 -11 4 -16 2 -12 -4 3 -6 -11 -23 -31 -39 -82 -60 -143 -116 -143
-131 0 -16 102 -122 117 -122 4 0 44 34 88 75 44 41 86 75 92 75 7 0 13 -11
13 -25 0 -17 -22 -46 -77 -99 -94 -92 -99 -81 87 -175 36 -18 78 -40 93 -48
27 -14 32 -13 85 15 62 33 170 72 200 72 45 0 24 16 -72 54 -96 39 -164 81
-211 131 -35 36 -80 99 -93 128 -18 41 -26 164 -14 215 5 23 9 42 8 42 0 0
-19 -8 -41 -18z"/>
<path d="M2970 3431 c-146 -73 -160 -83 -160 -110 0 -34 28 -138 56 -204 14
-32 22 -62 19 -67 -19 -30 36 5 143 93 39 31 73 57 76 57 3 0 21 11 41 24 20
14 41 26 47 28 7 3 -1 31 -24 79 -19 41 -38 91 -42 112 -6 32 -10 37 -34 36
-15 0 -70 -22 -122 -48z"/>
<path d="M2590 3219 c-74 -40 -145 -80 -157 -92 -13 -11 -30 -17 -42 -14 -14
3 -18 1 -14 -9 3 -8 13 -14 23 -14 36 0 77 -59 116 -169 37 -103 55 -144 68
-153 12 -8 48 23 174 145 l93 90 -20 42 c-11 23 -27 70 -36 105 -17 67 -50
140 -63 140 -4 0 -68 -32 -142 -71z"/>
<path d="M3200 3224 c0 -11 -12 -28 -27 -39 -15 -11 -37 -29 -50 -40 -12 -11
-54 -45 -94 -75 -101 -78 -101 -79 -34 -149 51 -54 168 -141 210 -157 13 -5
14 -9 3 -15 -10 -7 -9 -9 5 -9 9 0 17 4 17 10 0 5 24 27 53 49 28 22 90 76
136 120 56 53 88 78 99 74 9 -4 13 -2 9 4 -4 6 -18 14 -32 17 -45 11 -138 77
-217 154 -58 56 -78 70 -78 56z"/>
<path d="M4985 3174 c-22 -7 -61 -18 -87 -25 -26 -7 -57 -21 -70 -31 l-23 -17
21 -15 c12 -8 54 -43 95 -77 41 -34 88 -73 106 -86 l32 -25 103 47 c115 52
261 89 292 73 12 -7 16 -7 12 0 -9 14 -139 85 -216 117 -112 47 -199 60 -265
39z"/>
<path d="M6580 3098 c-36 -27 -102 -75 -147 -104 -46 -30 -83 -58 -83 -64 0
-15 121 -140 136 -140 29 0 118 57 210 133 52 43 94 82 94 85 0 4 -9 13 -20
19 -10 7 -37 37 -60 68 -22 30 -46 55 -53 55 -7 -1 -41 -24 -77 -52z"/>
<path d="M4710 3063 c-8 -3 -49 -23 -90 -43 -41 -21 -111 -55 -155 -77 -44
-22 -106 -48 -137 -59 -32 -10 -58 -21 -58 -24 1 -3 48 -27 106 -55 62 -29
123 -67 150 -93 39 -36 51 -42 75 -37 15 4 33 12 39 20 20 24 306 155 339 155
22 0 10 27 -26 62 -77 72 -209 164 -226 157 -1 0 -9 -3 -17 -6z"/>
<path d="M2365 3014 c-39 -31 -146 -83 -215 -105 -59 -19 -60 -20 -30 -84 21
-46 65 -168 74 -205 12 -53 19 -56 83 -36 110 35 263 115 263 139 0 7 -13 39
-30 72 -16 33 -30 68 -30 78 0 16 -45 106 -74 148 -10 15 -14 15 -41 -7z"/>
<path d="M5400 2979 c-146 -43 -176 -53 -188 -62 -7 -6 -36 -21 -64 -34 -45
-21 -49 -25 -37 -40 22 -27 49 -53 54 -53 3 1 20 -6 38 -14 152 -70 289 -75
406 -14 92 48 169 92 198 115 l28 22 -27 0 c-31 1 -163 41 -255 77 -71 28 -68
28 -153 3z"/>
<path d="M3548 2937 c-53 -37 -122 -93 -208 -168 -59 -51 -75 -79 -45 -79 8 0
63 -25 122 -55 113 -57 189 -85 235 -85 30 0 98 51 233 176 47 43 100 86 117
95 38 20 39 19 -107 45 -55 9 -107 23 -115 30 -8 7 -28 15 -45 19 -55 12 -130
38 -135 46 -3 5 -27 -6 -52 -24z"/>
<path d="M3700 2960 c8 -5 22 -9 30 -9 10 0 8 3 -5 9 -27 12 -43 12 -25 0z"/>
<path d="M6788 2923 c-50 -45 -130 -104 -205 -153 -29 -18 -53 -35 -53 -37 0
-8 206 -183 215 -183 3 0 24 -12 47 -26 22 -14 43 -22 47 -17 3 5 49 63 103
129 107 132 154 175 170 153 8 -11 9 -11 6 1 -2 8 -61 44 -130 80 -69 36 -132
71 -141 78 -14 12 -22 8 -59 -25z"/>
<path d="M7728 2953 c6 -2 18 -2 25 0 6 3 1 5 -13 5 -14 0 -19 -2 -12 -5z"/>
<path d="M6100 2925 c-25 -8 -70 -23 -100 -32 -47 -15 -128 -54 -322 -155 -20
-11 -42 -26 -49 -34 -10 -12 -7 -14 17 -13 66 5 203 -40 269 -87 17 -12 57
-33 90 -48 l61 -27 134 80 c74 43 154 91 176 105 23 14 47 26 53 26 17 0 13
15 -11 37 -13 12 -41 40 -63 63 -42 45 -130 92 -180 96 -16 2 -50 -3 -75 -11z"/>
<path d="M2840 2903 c-17 -14 -44 -38 -59 -52 -126 -119 -151 -144 -151 -155
0 -38 214 -276 249 -276 10 0 41 23 68 51 26 28 91 93 143 145 l95 94 -40 21
c-22 12 -42 25 -45 29 -3 4 -23 18 -45 32 -22 14 -67 50 -100 81 -33 31 -65
57 -72 57 -6 0 -26 -12 -43 -27z"/>
<path d="M7485 2910 c-102 -21 -265 -79 -265 -94 0 -4 150 -96 195 -120 11 -6
46 -28 78 -50 50 -33 60 -36 75 -25 29 23 237 212 244 223 28 41 -211 91 -327
66z"/>
<path d="M4248 2833 c7 -3 16 -2 19 1 4 3 -2 6 -13 5 -11 0 -14 -3 -6 -6z"/>
<path d="M5005 2809 c-22 -4 -61 -18 -86 -32 -25 -13 -56 -28 -70 -32 -40 -12
-183 -86 -201 -103 -16 -16 -15 -19 12 -49 70 -78 219 -157 334 -177 89 -15
103 -13 166 24 25 15 74 43 110 63 67 36 109 67 169 125 l34 32 -29 0 c-35 0
-147 23 -189 39 -45 17 -146 71 -180 95 -25 18 -37 21 -70 15z"/>
<path d="M4085 2797 c-11 -7 -22 -15 -25 -18 -3 -4 -23 -19 -45 -33 -22 -15
-58 -43 -80 -61 -22 -19 -57 -47 -78 -64 -45 -35 -117 -99 -117 -104 0 -2 26
-10 58 -17 31 -8 84 -26 117 -41 57 -25 156 -93 163 -111 6 -15 46 -7 78 15
291 205 355 250 360 259 19 30 -176 154 -279 178 -57 13 -128 11 -152 -3z"/>
<path d="M7145 2769 c-5 -6 -30 -29 -55 -52 -52 -49 -103 -105 -144 -162 -17
-22 -33 -42 -37 -45 -3 -3 -9 -14 -13 -26 -5 -18 0 -23 36 -33 40 -12 78 -34
228 -127 30 -19 64 -34 74 -34 19 0 162 140 243 238 35 41 35 43 17 57 -51 40
-321 196 -335 195 -2 -1 -8 -6 -14 -11z"/>
<path d="M6478 2713 c7 -3 16 -2 19 1 4 3 -2 6 -13 5 -11 0 -14 -3 -6 -6z"/>
<path d="M6460 2690 c-50 -23 -160 -83 -200 -109 -14 -9 -42 -26 -63 -36 -52
-27 -80 -59 -73 -82 4 -10 24 -31 44 -46 49 -38 153 -113 216 -158 61 -44 50
-48 189 65 37 30 95 72 127 92 33 20 60 42 60 48 0 6 -33 36 -72 66 -40 30
-88 69 -107 85 -71 61 -106 82 -121 75z"/>
<path d="M2550 2646 c-41 -22 -202 -101 -247 -122 -23 -10 -43 -25 -43 -33 0
-22 58 -133 98 -186 21 -27 60 -67 87 -87 41 -31 55 -37 80 -32 65 14 136 47
223 104 91 60 114 80 91 80 -17 0 -179 178 -179 196 0 6 -19 29 -43 52 -39 39
-44 40 -67 28z"/>
<path d="M3209 2641 c-59 -37 -108 -78 -128 -106 -11 -16 -48 -59 -81 -95 -33
-36 -60 -67 -60 -71 0 -6 204 -142 245 -162 51 -25 99 -30 131 -14 44 23 294
276 294 298 0 13 -10 20 -37 25 -21 3 -93 33 -161 65 -67 33 -131 59 -140 59
-10 0 -22 4 -27 9 -6 5 -21 2 -36 -8z"/>
<path d="M5564 2631 c-12 -5 -78 -48 -148 -95 -69 -47 -144 -95 -166 -107 -47
-27 -50 -36 -12 -45 46 -10 145 -46 187 -67 42 -21 143 -87 167 -109 15 -14
45 -34 65 -44 6 -3 35 20 65 52 29 31 66 69 83 83 16 14 62 56 101 94 39 37
76 67 83 67 24 0 5 25 -42 56 -26 17 -56 39 -67 49 -40 37 -132 67 -215 71
-44 2 -90 0 -101 -5z"/>
<path d="M4568 2579 c-3 -8 -30 -28 -59 -44 -30 -15 -87 -52 -126 -82 -40 -29
-76 -53 -79 -53 -8 0 -67 -49 -107 -87 l-29 -28 44 -38 c81 -71 304 -167 388
-167 14 0 52 13 85 29 90 43 144 80 283 198 15 13 30 23 35 23 4 0 7 7 7 15 0
8 -7 15 -16 15 -23 0 -157 47 -195 68 -103 58 -177 108 -200 135 -19 23 -27
27 -31 16z"/>
<path d="M3688 2453 c-9 -2 -85 -73 -168 -156 -165 -166 -164 -164 -79 -187
33 -9 103 -43 233 -113 60 -33 67 -33 114 -3 35 23 197 185 253 253 l26 32
-45 45 c-41 42 -153 106 -185 106 -7 0 -17 4 -22 9 -12 10 -103 21 -127 14z"/>
<path d="M5989 2390 c-30 -22 -104 -90 -166 -151 -101 -99 -111 -112 -100
-130 6 -10 15 -19 18 -19 24 0 236 -143 308 -207 28 -25 42 -22 96 26 92 82
255 246 255 256 0 14 -161 145 -207 169 -18 9 -43 27 -57 41 -14 14 -32 25
-39 25 -8 0 -17 7 -21 15 -9 24 -28 18 -87 -25z"/>
<path d="M6820 2414 c-54 -18 -134 -69 -214 -135 -92 -77 -122 -107 -115 -113
61 -49 148 -109 183 -127 25 -12 46 -26 46 -31 0 -4 6 -8 14 -8 8 0 41 -20 75
-45 52 -38 64 -43 75 -32 8 7 38 33 67 57 69 57 239 231 239 245 0 13 -139
114 -197 143 -22 12 -58 26 -80 31 -21 5 -47 12 -58 15 -11 3 -27 3 -35 0z"/>
<path d="M5063 2303 c-22 -16 -84 -60 -136 -100 -53 -40 -111 -81 -129 -90
-89 -49 -109 -73 -60 -73 76 0 217 -67 361 -171 61 -44 77 -47 129 -21 127 64
388 245 391 272 1 7 -154 119 -203 148 -58 33 -171 62 -246 62 -55 0 -73 -4
-107 -27z"/>
<path d="M2782 2248 c-57 -37 -113 -68 -123 -68 -10 0 -19 -4 -19 -10 0 -5
-23 -17 -50 -27 -28 -10 -49 -22 -47 -28 2 -5 50 -34 108 -64 99 -50 111 -54
197 -59 128 -7 232 26 369 115 l26 17 -84 41 c-75 36 -135 70 -149 85 -13 13
-87 57 -105 62 -13 3 -54 -18 -123 -64z"/>
<path d="M4092 2275 c-6 -14 -8 -25 -4 -25 4 0 12 11 19 25 6 14 8 25 4 25 -4
0 -13 -11 -19 -25z"/>
<path d="M4141 2274 c0 -11 3 -14 6 -6 3 7 2 16 -1 19 -3 4 -6 -2 -5 -13z"/>
<path d="M4102 2198 c-22 -13 -94 -74 -159 -137 -65 -63 -128 -119 -140 -126
-21 -11 -21 -12 10 -27 65 -32 167 -78 171 -78 3 0 51 -22 107 -50 72 -35 108
-48 125 -44 27 7 150 98 222 165 26 24 63 58 83 75 20 17 34 36 30 42 -3 5
-35 20 -71 31 -36 12 -81 30 -100 40 -19 11 -71 38 -114 61 -44 23 -89 48
-101 56 -19 13 -26 12 -63 -8z"/>
<path d="M6287 1964 c-86 -85 -155 -160 -152 -165 4 -5 13 -9 21 -9 8 0 14 -4
14 -8 0 -4 15 -15 33 -24 17 -8 55 -27 82 -41 28 -15 86 -42 129 -62 l79 -35
31 20 c17 10 45 27 61 36 73 41 245 186 245 206 0 4 -5 8 -10 8 -6 0 -29 14
-53 31 -23 17 -86 55 -140 86 -53 30 -102 63 -107 72 -5 9 -10 12 -10 8 0 -4
-10 1 -22 13 -12 11 -27 20 -32 20 -6 0 -82 -70 -169 -156z"/>
<path d="M5655 2068 c-64 -54 -276 -203 -315 -221 -38 -18 -104 -64 -108 -75
-2 -7 5 -12 18 -12 27 0 210 -79 210 -90 0 -4 14 -13 30 -20 17 -7 30 -16 30
-20 0 -14 102 -62 135 -63 31 -1 150 50 177 76 7 7 31 24 53 37 40 23 59 37
129 95 l37 29 -64 62 c-36 34 -100 82 -143 106 -44 25 -102 58 -129 75 -29 17
-54 26 -60 21z"/>
<path d="M4598 1971 c-18 -14 -35 -28 -38 -31 -16 -17 -211 -189 -238 -209
-18 -13 -32 -30 -32 -36 0 -7 28 -23 63 -35 34 -13 82 -34 106 -47 24 -13 46
-22 49 -19 3 3 10 2 16 -3 6 -5 51 -30 100 -55 l88 -47 42 25 c36 22 76 54
126 99 8 8 29 22 45 33 17 10 32 21 35 25 3 3 32 23 64 45 111 74 112 74 95
74 -8 0 -24 8 -35 18 -127 116 -256 175 -401 185 -43 3 -56 0 -85 -22z"/>
<path d="M2625 1230 c-3 -5 -1 -10 4 -10 6 0 11 5 11 10 0 6 -2 10 -4 10 -3 0
-8 -4 -11 -10z"/>
</g>
</svg>
